<svg width="107" height="149" viewBox="0 0 107 149" fill="none" xmlns="http://www.w3.org/2000/svg">
<g clip-path="url(#clip0_58_1409)">
<path d="M68.4358 125.964C68.4084 129.998 65.1403 132.588 61.1603 132.067L60.9413 139.888C64.4148 140.95 67.3065 146.484 66.0745 148.147C64.8802 149.761 50.0829 148.873 47.1741 148.277L47.6497 132.201L40.1553 132.208L40.6138 148.338C37.6605 148.863 23.2431 149.791 21.6894 148.157C21.3951 147.845 21.4088 147.173 21.4807 146.666C21.9358 143.479 24.0473 141.276 26.8466 139.908L26.6139 132.115C22.432 132.492 19.2049 129.737 19.2049 125.673L19.1912 98.0379C18.4692 97.26 17.7266 96.9207 16.8265 96.3073C12.0184 99.1653 10.1363 107.397 12.761 111.794C15.42 113.942 18.2159 116.663 16.6383 120.539C16.3201 121.32 14.7459 121.074 14.0546 120.94C13.1341 120.762 12.785 119.662 12.2067 118.877C11.6283 118.092 10.5127 118.812 10.3792 119.473C9.86249 121.985 13.3839 120.906 13.644 123.918C13.7672 125.327 12.874 126.293 11.5188 126.728C8.57577 127.674 5.94072 126.351 3.89771 124.723C1.25924 122.616 2.26535 119.676 1.5775 117.109C-0.205438 110.45 -0.903555 103.771 1.86838 97.2942C4.64031 90.8173 9.48263 87.1711 15.2318 83.8949C16.4638 83.1924 17.8155 81.3042 19.1057 80.3789C21.0974 78.9499 21.8982 76.7292 25.2382 76.7498L32.4452 76.7943C32.6539 75.5332 32.719 74.4571 32.363 73.3468L25.18 73.1995C21.881 73.1309 19.3384 70.4922 18.7806 67.1955C18.3391 64.5841 18.7806 62.1442 18.5855 59.3409C11.7686 57.2196 12.761 58.8714 9.46895 53.9332C6.58066 49.6016 6.21449 44.8518 9.46895 40.4996C10.4545 39.1803 11.1834 37.0727 13.0074 36.2434C12.7234 29.506 14.1915 21.5589 20.608 18.3479C23.1027 17.0971 25.7344 16.5453 28.5405 16.5282L41.6473 16.4597L42.4036 8.10822C39.8473 6.71003 39.3476 3.55725 40.9766 1.54906C42.6055 -0.459121 45.8189 -0.524233 47.5265 1.55592C49.1657 3.55382 48.7277 6.6929 46.1816 8.09451L46.9482 16.446L62.3239 16.7201C68.5487 16.8298 72.9701 21.1683 74.5717 26.9941C75.4067 30.0338 75.4478 33.2756 75.5436 36.3428C77.2718 37.1686 78.076 39.2008 79.0479 40.5853C83.7704 47.3295 80.4099 52.8811 75.8242 58.0661C74.8968 61.4793 73.8222 64.7178 69.9176 65.7493C69.9997 69.6526 67.2038 73.1618 63.3779 73.1995L56.1366 73.2748C55.856 74.4092 55.9005 75.4749 56.0785 76.7943C67.3681 76.6846 64.1376 76.5887 68.4255 80.3378C75.9371 86.9003 69.3495 86.6399 77.7303 96.016C79.3524 97.8323 82.3057 99.0728 84.5335 98.312C85.0674 95.4094 86.7442 93.0894 89.7728 92.6028C94.4954 87.6508 87.9112 85.7729 91.679 79.6901C94.2387 75.5503 100.963 74.9335 99.6662 77.6476L97.5445 82.0889C97.127 82.9628 98.116 83.9258 98.6944 84.2582C99.413 84.6694 100.898 84.9367 101.391 84.1108C102.435 82.3597 103.092 80.4611 104.464 78.967C106.534 79.9539 107.007 82.274 107.014 84.3404C107.024 88.8503 104.036 92.0236 99.7313 92.5616C98.9099 92.8427 97.7088 94.7172 98.0544 95.4848C98.513 96.5129 99.2898 97.4861 99.2453 98.737C99.1358 101.592 98.1981 104.282 96.4255 106.396C95.1559 107.907 93.5783 108.01 91.8056 108.305C90.4436 108.531 90.7926 110.639 91.1964 111.509C92.2915 113.857 91.7851 116.225 90.3375 118.229C87.9865 121.488 83.832 121.567 83.3666 120.666C83.1544 120.258 83.2708 119.861 83.4727 119.443L85.2796 115.755C85.591 115.121 84.8586 114.35 84.4617 114.076C81.4194 111.965 81.3373 118.689 79.325 118.497C77.2957 118.301 75.9714 112.729 78.2573 109.535C74.469 108.161 71.4268 105.992 68.6001 102.712L68.4529 125.947L68.4358 125.964ZM42.1949 2.60799C41.3462 3.28309 41.4215 4.57162 41.8629 5.51403C42.3454 6.54554 43.4474 7.18637 44.7135 7.03559C45.86 6.89851 46.7121 6.11717 46.8353 4.63673C46.9379 3.39961 46.6847 2.28928 45.3706 1.65187C44.3542 1.15497 43.0401 1.43597 42.1949 2.60799ZM45.5349 16.5728C44.9086 13.4097 45.1995 10.7744 44.2584 7.77923C43.5226 10.9183 43.4953 13.6222 43.1736 16.7578C43.8888 17.1108 44.7341 17.217 45.5349 16.5728ZM15.8957 26.6514C14.7938 28.6013 13.5584 36.9425 15.4098 36.2262C16.2208 35.911 15.728 30.9864 17.5828 26.576C18.0756 25.4074 18.9209 24.5575 19.3076 23.4952C19.4342 23.4335 19.53 23.2827 19.643 23.1902C22.3601 20.9866 25.4846 19.8078 29.2352 19.8009L59.9831 19.7632C61.5128 19.7632 62.8167 20.2259 64.1342 20.3938C64.3121 20.4178 64.5893 20.4863 64.7639 20.4349L68.9217 23.1867C68.956 23.2998 69.1134 23.3684 69.1613 23.4746C69.7773 24.842 70.9305 25.9112 71.3309 27.5218C71.4302 27.9262 71.5739 28.286 71.9093 28.3511C71.4028 28.992 72.2378 30.0989 72.2857 30.7431C72.4089 32.3744 72.6587 33.985 72.6313 35.8013C72.6245 36.2811 73.6785 36.4661 73.7435 36.0754C73.9454 34.8418 74.12 33.5464 73.7264 32.4463C73.9454 25.0133 69.3256 18.2485 61.1843 18.2005L29.9436 18.0189C26.7302 18.0018 23.6777 18.3616 20.9571 19.9826C18.4076 21.5041 16.3919 23.8687 15.8991 26.6514H15.8957ZM20.016 25.5582C19.3692 26.5657 18.5205 27.4087 18.2741 28.6321C17.8771 30.5992 17.4323 32.5628 17.398 34.7629C17.3912 35.0988 17.9558 35.0337 18.1441 35.0371C18.8319 35.0508 18.565 31.007 18.6745 29.3141C19.2768 28.1215 19.4753 26.8776 20.3753 25.8872C21.6312 24.4993 23.2944 23.4266 25.4777 23.4301L62.7071 23.4369C64.9486 23.4369 66.8411 24.345 68.2065 25.8358C69.8663 27.6555 69.3632 30.1331 69.9518 30.0201C69.7807 31.5279 69.9073 33.0666 70.0203 34.7938C70.0442 35.181 71.088 35.1605 71.088 34.7698C71.088 32.6999 70.9579 30.6746 70.0647 29.016C70.0579 27.748 69.4248 26.4183 68.5042 25.5548C67.0053 22.9777 63.792 21.3739 60.4759 21.3636L28.6363 21.2916C26.1758 21.2848 23.8898 22.2375 21.9769 23.3821C20.9365 24.0058 20.5293 24.7494 20.0126 25.5548L20.016 25.5582ZM20.2761 29.9995L20.0331 35.4792C19.9852 36.6032 20.2589 37.5148 20.2589 38.5771V54.6117C20.2589 58.4259 20.1973 61.9899 20.3171 65.5779C20.4164 68.6142 21.5696 71.6916 25.5769 71.7053L62.3684 71.8184C65.6399 71.8287 68.2613 69.4847 68.2955 66.2222C68.3023 65.6396 67.3715 66.092 67.197 66.2016C65.0137 66.2599 61.9372 65.3449 60.1269 66.3867L58.6211 67.2503C56.6294 67.9871 54.3537 67.7061 52.362 66.7431C51.4209 65.7733 51.4483 64.6081 51.8453 63.5218C52.6905 62.5657 53.9191 61.9214 55.5001 61.8871C61.6702 61.7603 57.3036 65.1599 68.3811 62.8947L68.2305 33.7588C69.2571 30.1092 67.481 25.0167 63.3676 25.0099L25.8302 24.9311C22.5723 24.9242 20.3993 27.2374 20.2795 29.9995H20.2761ZM19.0646 57.1819L19.0783 36.8397C19.0783 36.3188 17.5691 36.3736 17.2406 36.634C16.9121 36.8945 16.4262 37.3537 16.3988 38.0836C16.1558 44.0705 16.0805 49.9614 16.498 55.9894C16.5493 56.7433 16.8779 57.3053 17.2577 57.5315C17.6376 57.7577 19.0646 57.9736 19.0646 57.1819ZM69.4898 37.8403C68.9936 39.3996 69.3221 56.8804 69.4351 57.5349C69.5138 57.9873 70.6465 57.8399 70.975 57.6583C71.3036 57.4767 71.7655 57.0003 71.8237 56.3355L72.1249 52.9188C72.5355 48.2685 72.3131 43.7107 71.9195 38.9198C71.8477 38.0528 72.0256 36.9493 70.8621 36.5861C70.5096 36.4764 69.9895 36.5038 69.6849 36.7266C69.4419 36.9048 69.2503 37.2714 69.4898 37.8403ZM10.7249 46.7606C10.8481 50.0539 10.2868 57.2265 15.6322 56.709L15.5398 42.6552C15.5296 41.1233 15.2832 39.6223 15.6835 37.6518C13.8869 37.1035 12.0321 38.4572 11.423 40.2837C10.7454 42.3193 10.7967 44.4714 10.7249 46.7606ZM72.9975 39.2008L72.9804 53.6796C72.9804 54.598 72.4637 55.537 72.7922 56.709C74.5306 57.1545 76.1048 56.0099 76.8816 54.4335C77.4497 53.2752 77.2615 52.2814 77.4223 50.9689C77.8262 47.6962 78.9965 36.9013 72.9804 37.5319C72.6313 37.7444 72.9701 38.5908 72.9975 39.1974V39.2008ZM9.05145 44.6873C8.84612 44.5263 8.77083 44.9101 8.77767 45.0472C8.79821 45.5029 8.79478 45.9587 8.75372 46.4145C8.59972 48.1691 8.65448 50.0642 9.90014 51.5309C10.0712 50.0368 10.037 48.714 9.79747 47.4495C9.77694 47.3432 9.87276 47.2096 9.86934 47.0965L9.85223 46.1369C9.83169 45.0369 10.2731 44.0157 9.98911 42.6003C9.47237 43.272 9.21571 43.9643 9.05487 44.6839L9.05145 44.6873ZM78.5243 45.3659L78.4558 51.6372C79.6467 50.215 79.8863 48.6215 79.6946 46.6887C79.5646 45.3796 79.6844 43.9848 78.5277 42.9533C78.2539 43.8512 78.5688 44.4783 78.5208 45.3659H78.5243ZM68.8294 64.848C72.0564 64.1386 74.8797 61.0064 73.853 57.6275C72.6074 60.4341 72.0701 62.5657 69.4761 63.4464C65.1677 64.9063 60.6128 63.7925 60.4075 64.7144C60.031 66.397 67.5495 65.1324 68.8328 64.8514L68.8294 64.848ZM71.899 59.1456C71.3207 59.1901 70.3864 59.0496 70.075 59.5431C69.6575 60.2079 69.8286 61.1915 70.1263 61.8186C71.1906 61.003 71.6424 60.1942 71.899 59.1456ZM58.3371 66.4175C59.4082 66.1537 59.5109 64.7932 59.2987 64.1181C59.0865 63.443 58.3473 62.9495 57.4644 62.9084C55.1887 62.8021 52.7248 62.4766 52.4715 64.4471C52.3791 65.153 52.4921 66.1639 53.4503 66.3798C54.9423 66.7157 56.6876 66.8219 58.3371 66.4175ZM53.9328 74.3783C54.4119 74.3578 54.4872 73.7855 54.4427 73.621C54.4119 73.5113 54.4153 73.2509 54.121 73.2509L34.3958 73.2406C34.0502 73.2406 34.0331 73.8094 34.1255 73.9499C34.1871 74.0459 34.2966 74.2549 34.5635 74.2652L45.2816 74.745L53.9362 74.3749L53.9328 74.3783ZM54.2442 76.9314C54.6104 76.4688 54.5351 75.2693 54.145 75.122C47.5129 75.6668 40.956 75.588 34.3992 75.0637C33.9372 75.3173 33.9441 76.5887 34.3274 76.9588L54.2476 76.9314H54.2442ZM96.251 92.5274C95.7205 93.0483 95.1182 94.1517 95.8506 94.9194C97.5924 93.6343 96.9593 91.304 100.008 90.9099C103.088 90.5123 105.159 88.23 105.32 85.3479C105.391 84.0457 105.693 82.5858 104.734 81.3624C103.506 82.7435 103.328 84.8339 101.884 85.9682C97.9004 86.4994 97.4521 85.7489 95.5905 82.6955L98.0065 77.5551C95.854 77.7196 94.1532 78.8847 93.1916 80.2418C91.8775 82.0958 91.7132 84.2616 92.5824 86.3006C94.5296 90.8619 90.6318 92.0031 92.1923 93.7062C93.1984 93.1271 93.438 90.3136 95.2893 90.951C95.8232 91.1326 96.0559 91.9208 96.2544 92.5308L96.251 92.5274ZM20.6696 125.094C20.5361 127.503 21.9871 130.477 24.8617 130.488L63.3266 130.618C66.119 129.795 67.3544 127.314 66.8308 124.439C66.7863 124.192 66.9027 123.904 66.8514 123.384C66.8342 123.236 66.8171 123.055 66.8308 122.664C66.9506 119.473 66.8479 116.276 66.8479 112.777V106.962V105.937C66.8479 105.687 66.8171 105.42 66.8479 104.912C66.8856 104.326 66.9643 103.74 66.8479 102.86C66.8308 102.726 66.8171 102.537 66.8479 102.174C66.9198 101.359 66.9643 100.543 66.8479 99.4361C66.7898 98.8535 66.8479 98.2606 66.8479 97.3833V96.698V89.1724C66.8479 88.1272 67.0533 87.082 66.8479 85.7523C66.8103 85.5124 66.8274 85.228 66.8479 84.7277C66.8685 84.2513 66.9711 83.7716 66.8137 82.9971C67.1149 80.5776 65.4312 78.2885 62.7037 78.2885L25.1389 78.2953C22.6031 78.2953 20.7278 80.1287 20.7244 82.7058L20.6696 125.094ZM16.214 89.8921C16.433 92.2087 16.6315 94.9365 19.2871 96.1565C19.0988 93.9358 19.6567 91.7769 19.3042 89.8578L19.2871 82.3973C16.0395 83.8161 15.9744 87.3493 16.214 89.8886V89.8921ZM68.2544 82.9834L68.2647 83.3603L68.34 85.6838L68.3058 95.8172C70.0476 95.334 70.3967 93.8022 70.9511 92.1744C72.1557 88.6172 70.9853 83.8504 68.7062 82.5653C68.5248 82.4625 68.3366 82.5721 68.2613 82.9834H68.2544ZM10.6838 90.8893C11.3819 91.9962 12.3435 92.9386 13.4147 93.9358C13.7603 94.4122 13.7021 95.6664 14.5782 95.8207C15.1086 95.9166 15.9231 95.2347 15.9026 94.7138C15.8547 93.528 15.136 92.7021 14.8828 91.6192C14.6193 90.4986 14.9683 89.2032 14.7596 87.7537C14.6911 87.2842 15.0847 86.705 14.7082 86.2321C12.5728 87.0546 10.9268 88.3499 9.17806 89.7995C9.59557 90.5123 10.0712 90.6186 10.6906 90.8927L10.6838 90.8893ZM5.26656 98.0619L9.01722 99.4395C9.58188 100.046 10.3142 100.57 11.2279 100.793C11.9671 99.2956 12.8534 98.127 13.6884 96.8899C14.2394 96.0743 13.0827 95.6082 12.7405 94.9399C12.1279 93.7474 11.358 92.7364 10.0268 91.9277C9.57161 91.6501 9.41419 90.7488 8.50048 90.5912C6.39244 92.5274 4.60951 94.9262 3.38781 97.6643C4.00721 98.0687 4.52396 97.9865 5.26656 98.0619ZM72.0359 93.9598L70.1298 96.7288C69.7465 96.9344 69.0347 96.9892 68.7575 97.5376C68.0799 98.8843 68.5864 100.8 69.9381 101.407C70.7492 101.509 71.0811 100.262 71.6595 99.7514C72.7135 98.8227 73.9454 97.7226 74.3732 96.1017C74.5991 96.0331 74.8147 95.8995 74.8763 95.735C75.0097 95.3717 74.8249 95.0325 74.6025 94.6966L72.7032 91.8351C72.1899 92.5068 72.2754 93.2813 72.0325 93.9564L72.0359 93.9598ZM95.2551 92.7261C95.4331 92.1778 94.9711 91.4102 94.5125 91.7597C93.5303 92.5068 93.1642 93.7576 93.0684 94.9605C94.4098 94.8954 94.8445 93.9872 95.2551 92.7261ZM87.7298 97.4416C88.8865 97.2188 90.2759 97.3422 90.755 96.698C91.1109 96.2182 92.1854 95.1901 91.4976 94.6486C90.1903 93.6206 88.1884 94.5698 87.3842 95.5328C86.3062 96.8213 85.9161 98.432 86.4397 100.091C87.5553 99.7445 87.1686 98.0208 87.7298 97.445V97.4416ZM92.1444 98.0585C91.2683 98.8158 90.8303 99.9775 90.7345 101.119C90.0706 102.304 90.1835 103.915 90.7139 105.269C91.2375 106.609 92.709 107.16 93.9547 106.396C94.7076 105.937 95.4947 105.293 95.9019 104.6C96.3091 103.908 97.0859 102.986 96.9525 102.178C97.8491 100.687 98.0578 98.456 97.0654 96.883C96.4255 95.8686 95.2414 95.7178 94.3414 95.9714C93.3045 96.2662 92.4797 97.0338 92.1478 98.0585H92.1444ZM74.9413 97.3731C73.9626 98.3258 73.1378 99.4806 72.3028 100.814C71.7108 101.091 70.6636 101.708 70.5541 102.493C71.8648 104.251 73.7299 105.8 75.7968 106.701C76.6079 106.67 76.7311 105.293 77.0972 104.529C77.6516 103.37 78.3805 101.972 78.5003 100.423C78.7091 100.169 79.479 99.323 78.9726 98.9666C75.9645 96.8453 75.4991 95.2244 74.9447 97.3731H74.9413ZM85.2282 119.652C88.6949 119.158 91.1417 115.478 89.8584 112.263C89.1192 110.413 89.0371 108.888 90.2691 107.195C90.4436 106.955 90.0124 106.297 89.7763 106.273C89.15 106.211 89.0713 108.541 87.2473 107.973C86.4739 107.733 86.248 106.739 86.6382 105.879L89.8926 98.6856C89.92 98.3909 89.0165 98.4183 88.801 98.8535L85.1187 106.4C83.9312 108.833 80.7487 107.568 79.1676 111.016C78.3532 112.791 78.2539 114.768 79.284 116.324L81.2962 112.784C81.8061 111.886 84.3145 112.051 85.2796 112.787C86.0085 113.346 87.2131 114.569 86.9496 115.741C86.6245 117.205 85.3857 118.113 85.2214 119.655L85.2282 119.652ZM2.87449 107.383C4.38023 107.205 6.99132 106.787 8.36702 106.855C8.76056 106.876 9.63321 107.304 10.037 106.89L10.6393 101.903C10.7454 101.026 9.28415 100.893 8.71265 100.461C7.86739 99.8267 6.93999 99.4087 5.70459 99.2133C4.83879 99.0763 4.0209 98.4868 2.92924 98.7575C1.85469 101.753 1.37901 104.744 1.47825 107.959C2.07371 107.959 2.36459 107.62 2.87791 107.38L2.87449 107.383ZM79.4756 101.095C78.8152 102.058 78.5414 103.223 78.0589 104.535C77.7954 105.252 77.0835 106.03 77.128 106.996C77.1623 107.743 78.5037 108.01 79.0307 108.212C79.7802 108.497 80.4817 107.654 81.197 107.404C82.2852 107.02 83.0346 107.02 83.4761 105.971C83.9723 104.799 83.4487 103.675 83.3153 102.178C83.2605 101.554 83.6712 100.944 83.4008 100.142C82.1723 100.125 81.0635 99.6691 79.8555 99.4875C79.4927 99.7479 79.5167 100.509 79.4756 101.095ZM84.4822 104.124C85.1529 103.302 85.6971 102.579 85.5739 101.736C85.4883 101.15 85.1598 100.214 84.424 99.8439C84.0236 101.383 84.2016 102.77 84.4822 104.124ZM88.1268 107.106C89.3314 106.053 89.328 104.679 88.8899 102.938C88.7975 103.154 86.58 106.513 87.2815 107.174C87.5348 107.414 87.8599 107.339 88.1302 107.106H88.1268ZM2.98057 108.624C0.0580665 107.596 2.50147 113.754 2.75471 115.166C3.6342 115.022 3.51443 114.179 3.94562 113.812C5.50269 112.842 6.97763 111.814 9.00696 111.489C9.37313 111.43 9.84196 111.653 10.2013 111.4C10.6599 111.074 10.3861 110.323 10.3519 109.902C10.2458 108.545 10.2663 108.134 8.97274 107.925C7.01527 107.606 4.90724 107.438 2.98057 108.624ZM8.36017 113.062C6.41298 113.48 4.91408 114.46 3.91824 116.249C2.23455 119.271 3.41518 123.332 6.62857 124.717C7.74761 125.2 8.80505 125.745 10.0712 125.409C10.677 125.248 11.5428 125.392 11.9808 124.631C12.2546 124.155 12.1211 123.63 11.796 123.212C11.5291 122.866 10.8549 122.969 10.4408 122.712C9.4313 122.085 8.77767 121.036 8.78452 119.823C8.79479 118.541 9.64005 117.64 10.7351 116.944C12.0458 116.924 13.4557 117.325 13.8459 118.877C13.9554 119.319 15.1531 120.128 15.3687 119.487C16.0189 117.568 14.7904 115.505 13.531 114.347C11.9876 112.925 10.1739 112.671 8.35675 113.062H8.36017ZM38.4373 133.603C38.848 133.524 38.7248 132.016 38.1499 132.026L28.4926 132.204C28.1196 132.211 28.1128 133.678 28.5508 133.719C31.8942 134.034 35.1281 134.223 38.4373 133.599V133.603ZM59.3261 133.671C59.7846 133.599 59.6546 132.15 59.5896 131.971L49.4566 132.084C49.0494 132.088 48.981 133.644 49.419 133.695C52.7111 134.079 55.9758 134.202 59.3261 133.675V133.671ZM29.5021 137.064C32.1988 137.674 35.6175 137.424 38.4887 137.232C38.9986 136.632 38.9062 135.145 38.4305 134.638L30.9566 134.696C30.2037 134.734 29.1873 134.309 28.4379 134.607C28.0956 135.1 28.1504 136.337 28.4276 136.958C28.6192 137.383 29.2729 137.033 29.5056 137.067L29.5021 137.064ZM52.1464 137.359C54.1005 137.389 56.0785 137.561 58.2002 137.132C58.5424 137.064 59.0797 137.341 59.3637 137.054C59.6922 136.721 59.6614 134.908 59.3945 134.675C59.2029 134.511 58.8264 134.6 58.3337 134.655C58.1865 134.672 58.0051 134.668 57.615 134.668H55.8834C55.7465 134.668 55.5754 134.771 55.2195 134.758L49.3129 134.518C49.0836 135.162 48.779 136.389 49.2137 136.886C50.0452 137.496 51.2669 137.197 52.1498 137.355L52.1464 137.359ZM29.8752 139.264L30.5835 139.367C30.6965 139.384 30.8128 139.387 30.9258 139.387H31.6102L33.66 139.569C34.5703 140.402 35.9597 140.576 37.0103 141.145C37.551 141.766 38.1157 142.458 38.9233 142.996C39.0088 141.279 39.0944 139.727 38.6837 138.202C38.2936 137.838 37.4381 138.181 37.0616 138.16C35.2616 138.061 31.6615 138.051 29.8444 138.184C29.5227 138.208 28.7116 137.897 28.4687 138.15C28.2428 138.387 28.2462 139.151 28.4858 139.37C28.7253 139.589 29.5603 139.305 29.8752 139.267V139.264ZM50.7913 141.176C53.0054 140.045 55.5617 139.254 58.3029 139.141C58.5424 139.237 58.9257 139.507 59.1652 139.439C59.6888 139.291 59.5485 138.551 59.4322 138.253C59.2405 137.763 58.628 138.205 58.012 138.164C55.6952 138.02 53.3681 138.068 51.0445 138.116C50.5825 138.126 49.5764 137.746 49.1315 138.16C48.6182 139.877 48.8851 141.591 48.8201 143.205C49.5353 142.376 50.2506 142.04 50.7947 141.173L50.7913 141.176ZM34.7209 147.304L35.3232 147.286C35.4875 147.283 35.6825 147.31 36.1069 147.262C37.0377 147.163 37.9446 147.256 39.245 146.844C38.4373 143.962 36.1719 141.437 32.9756 141.145C28.1504 138.925 22.2506 144.288 23.1472 147.088C23.2807 147.506 23.9309 147.146 24.3484 147.225C27.7705 147.876 31.1037 147.684 34.7175 147.304H34.7209ZM54.826 141.135C54.5248 140.964 54.1142 141.413 53.8712 141.485C51.5544 141.886 49.2479 144.065 48.6353 146.711C49.6312 147.262 50.7194 147.177 51.7255 147.259C56.0716 147.615 60.4691 147.979 64.9042 147.105C64.0726 142.149 59.0934 139.566 54.826 141.135Z" fill="#212118"/>
<path d="M66.8138 82.9971C66.9712 83.7716 66.8686 84.2514 66.848 84.7277C66.4921 84.666 66.4545 84.9642 66.4545 85.2417C66.4545 85.5193 66.4887 85.8175 66.8446 85.7558C67.0499 87.0854 66.8446 88.1306 66.8446 89.1759C66.5606 89.1279 66.4647 89.474 66.4647 89.8441V96.0366C66.4647 96.4067 66.5606 96.7494 66.8446 96.7048V97.3902C66.2252 97.774 66.2252 99.0591 66.8446 99.443C66.9575 100.546 66.9165 101.362 66.8446 102.181C66.564 102.106 66.3724 102.383 66.4784 102.685C66.5229 102.808 66.6598 102.918 66.8446 102.866C66.9575 103.747 66.8788 104.333 66.8446 104.919C66.499 104.858 66.4579 105.166 66.4579 105.433C66.4579 105.701 66.4955 106.009 66.8446 105.947V106.972C66.5674 106.931 66.475 107.274 66.475 107.637V112.119C66.475 112.486 66.5674 112.825 66.848 112.784C66.848 116.283 66.9507 119.477 66.8309 122.671C66.5743 122.726 65.7837 122.496 65.7906 123.051C65.7974 123.606 66.5914 123.346 66.8515 123.39C66.9062 123.908 66.7864 124.199 66.8309 124.446L65.4005 124.394L62.6251 120.721C62.4711 120.515 62.0434 121.163 62.0331 121.31C61.5403 121.259 60.962 121.249 60.7121 121.728C60.6026 121.934 60.4213 122.102 60.3528 122.335C59.2201 122.736 58.0908 122.952 57.5432 124.093C57.3379 124.113 57.0984 124.124 56.9375 124.254C56.7596 124.394 56.7219 124.634 56.6911 124.837C56.5782 125.015 56.5063 125.368 56.2942 125.457C55.9177 125.614 55.6884 124.511 55.0451 124.754C54.9219 124.799 54.8124 124.957 54.85 125.138C54.9664 126.098 55.7021 126.8 56.1915 127.842C57.0641 128.764 51.3937 128.75 50.7263 128.747L24.8926 128.706C24.7181 128.706 20.745 127.115 21.0119 125.104C21.1317 124.199 20.7724 123.055 21.0701 122.081C21.8264 119.617 20.4301 115.166 21.1522 111.156C21.4773 109.357 21.1762 107.983 21.1214 106.249C20.9195 99.8748 20.9469 93.6137 21.1146 87.2431C21.1522 85.8209 21.8503 84.4364 21.9598 82.9971C22.1036 81.126 23.688 79.7381 25.7242 79.7346L63.3506 79.7244C65.291 79.7244 66.3005 83.2952 66.8138 83.0108V82.9971ZM28.8726 81.4173C28.5269 81.6023 28.0684 81.5989 27.5311 81.5886C25.885 81.5612 24.7523 82.7229 24.7523 84.3919L24.7694 106.622C24.7694 108.233 25.8748 109.381 27.5071 109.378L56.1983 109.306C59.3638 109.299 61.6874 107.164 62.6662 104.227C62.5669 104.251 63.4088 104.302 63.4088 104.117L63.2787 83.8607C63.2616 81.3179 61.0954 80.9649 59.2954 80.9649L27.8459 80.9752C27.9794 81.5304 28.5611 81.2459 28.8691 81.4173H28.8726ZM34.5157 121.776C35.029 120.872 34.5465 119.785 34.8339 118.963L37.8557 118.668C38.3314 117.434 38.345 116.016 37.8351 114.775L34.7929 114.336C34.5122 113.559 35.0666 112.212 34.4027 111.609C33.5404 110.827 31.7506 111.187 30.7342 111.482L30.2962 114.518L27.4284 114.778C26.9083 115.988 26.809 117.458 27.4284 118.62C28.3798 118.949 29.2524 118.716 30.2688 118.932C30.5699 119.994 30.2551 120.906 30.7102 121.958C31.7506 122.359 33.6396 122.674 34.5157 121.773V121.776ZM60.6334 114.631C60.6334 113.151 59.4357 111.951 57.9539 111.951C56.4721 111.951 55.2744 113.151 55.2744 114.631C55.2744 116.112 56.4721 117.311 57.9539 117.311C59.4357 117.311 60.6334 116.112 60.6334 114.631ZM53.8336 118.332C53.8336 116.852 52.6359 115.652 51.1575 115.652C49.6792 115.652 48.4814 116.852 48.4814 118.332C48.4814 119.813 49.6792 121.012 51.1575 121.012C52.6359 121.012 53.8336 119.813 53.8336 118.332ZM41.9896 125.563C42.5919 125.118 42.5303 124.275 42.2189 123.843C41.2983 122.571 38.4751 124.631 37.1952 125.549C36.6648 125.93 36.6442 126.663 36.8804 127.17C37.6332 128.795 40.7234 126.495 41.993 125.563H41.9896ZM49.1556 125.543C49.7065 125.08 49.6415 124.251 49.3643 123.85C48.4267 122.503 45.9285 124.477 44.3646 125.529C43.8307 125.889 43.7999 126.691 44.0532 127.167C44.9258 128.798 48.1768 126.362 49.1556 125.543Z" fill="#E5E5B1"/>
<path d="M66.8274 124.439C67.3544 127.314 66.1156 129.795 63.3231 130.618L24.8583 130.488C21.9837 130.477 20.5327 127.503 20.6662 125.094H21.0084C20.7449 127.109 24.718 128.695 24.8891 128.695L50.7228 128.736C51.3901 128.736 57.0606 128.754 56.188 127.832C56.4275 128.346 56.9442 128.966 57.3994 129.477C57.7176 129.833 58.3131 128.826 57.9743 128.521L58.9428 128.445C59.1584 128.428 59.3877 128.503 59.6204 128.36C59.8086 128.246 59.7607 127.948 59.877 127.78C60.0515 127.527 60.363 127.379 60.6025 127.194C60.8489 127.283 61.1911 127.469 61.4136 127.321C61.6702 127.15 61.6052 126.763 61.6052 126.499C61.9577 126.43 62.2862 126.146 62.6455 126.108C62.8611 126.084 63.1212 126.358 63.2684 126.081C63.3676 125.892 63.4018 125.632 63.4634 125.491C63.8056 125.546 64.1068 125.203 64.4079 125.169C64.8973 125.114 65.3216 124.95 65.3969 124.388L66.8274 124.439Z" fill="#C3B88D"/>
<path d="M105.316 85.348C104.622 85.3103 103.964 87.4487 103.068 88.165C101.637 89.3027 99.9058 89.7791 98.075 90.0909C97.3563 90.9134 96.9594 91.8318 96.251 92.5309C96.0491 91.9209 95.8164 91.1361 95.2859 90.9511C93.4346 90.3171 93.195 93.1272 92.1889 93.7063C90.6284 92.0066 94.5262 90.8654 92.579 86.3007C91.7098 84.2617 91.8741 82.0959 93.1882 80.2419C94.1498 78.8848 95.8506 77.7197 98.0031 77.5552L95.5871 82.6956C97.4522 85.7524 97.897 86.4995 101.88 85.9683C103.325 84.834 103.502 82.7436 104.731 81.3625C105.693 82.5825 105.388 84.0458 105.316 85.348Z" fill="#444444"/>
<path d="M66.8138 82.9969C66.3039 83.2814 65.2909 79.7105 63.3506 79.7105L25.7242 79.7208C23.688 79.7208 22.1036 81.1087 21.9598 82.9832C21.8503 84.4226 21.1522 85.807 21.1146 87.2292C20.9469 93.5999 20.9195 99.8609 21.1214 106.235C21.1762 107.966 21.4773 109.34 21.1522 111.142C20.4301 115.155 21.8229 119.603 21.0701 122.067C20.7723 123.041 21.1317 124.185 21.0119 125.09H20.6697L20.7244 82.7022C20.7279 80.1252 22.6066 78.2918 25.139 78.2918L62.7038 78.2849C65.4312 78.2849 67.1149 80.5741 66.8138 82.9935V82.9969Z" fill="#444444"/>
<path d="M85.2283 119.652C85.3926 118.11 86.628 117.201 86.9565 115.738C87.2166 114.566 86.0154 113.339 85.2865 112.784C84.3215 112.047 81.813 111.883 81.3031 112.781L79.2909 116.321C78.2608 114.768 78.3601 112.788 79.1746 111.012C80.7556 107.565 83.9382 108.829 85.1257 106.396L88.8079 98.8502C89.02 98.4149 89.9269 98.3875 89.8995 98.6822L86.6451 105.875C86.255 106.736 86.4808 107.729 87.2542 107.969C89.0782 108.535 89.1603 106.208 89.7832 106.269C90.0159 106.293 90.4471 106.955 90.276 107.191C89.044 108.888 89.1227 110.409 89.8653 112.26C91.1486 115.474 88.7018 119.158 85.2352 119.648L85.2283 119.652Z" fill="#444444"/>
<path d="M8.36015 113.062C10.3689 112.887 10.9131 115.539 10.7385 116.944C9.64687 117.637 8.79818 118.538 8.78792 119.823C8.77765 121.036 9.43128 122.085 10.4442 122.712C10.5264 123.63 10.2902 124.525 10.0712 125.412C8.80503 125.748 7.74759 125.2 6.62855 124.72C5.0749 122.112 4.22278 119.271 3.91821 116.252C4.91406 114.463 6.41295 113.483 8.36015 113.065V113.062Z" fill="#E5E5B1"/>
<path d="M54.8259 141.135C55.9312 141.769 59.196 139.267 63.2957 146.053C58.0838 148.818 56.975 146.248 51.8555 146.594C52.2079 144.73 53.0327 143.16 53.8745 141.488C54.1175 141.413 54.5282 140.967 54.8293 141.139L54.8259 141.135Z" fill="#E5E5B1"/>
<path d="M32.9757 141.145C34.8202 142.3 35.5799 144.541 35.9735 146.58C35.7442 146.546 35.5115 146.642 35.4156 146.837C35.3438 146.985 35.3233 147.142 35.3233 147.286L34.721 147.303C35.4636 146.303 31.8053 146.69 31.641 146.748C27.9999 148.088 28.2531 146.573 24.6941 146.58C24.9781 143.263 30.149 140.645 32.9791 141.142L32.9757 141.145Z" fill="#E5E5B1"/>
<path d="M8.71268 100.461C8.3602 102.585 8.16172 104.703 8.36704 106.855C6.99134 106.787 4.38025 107.205 2.87451 107.383C3.05246 104.864 3.09011 102.209 4.23652 99.7514C4.48634 99.2202 5.46165 99.6452 5.7012 99.2134C6.93659 99.4087 7.86399 99.8268 8.70926 100.461H8.71268Z" fill="#C3B88D"/>
<path d="M96.9524 102.174C97.0824 102.983 96.2885 103.932 95.9018 104.597C93.5919 104.59 91.6447 103.233 90.7378 101.115C90.8336 99.9742 91.2716 98.8124 92.1477 98.0551C93.431 97.1024 95.8915 96.77 96.7847 98.456C97.3767 99.5766 96.7779 101.078 96.9558 102.174H96.9524Z" fill="#E5E5B1"/>
<path d="M10.0268 91.9311C11.358 92.7365 12.128 93.7474 12.7406 94.9434C11.3922 94.7378 9.688 99.3539 9.01726 99.443L5.2666 98.0654C5.10234 97.1641 5.49246 96.3039 6.12214 95.5191L8.72296 92.2704C9.0994 91.8009 9.61272 91.7221 10.0268 91.9277V91.9311Z" fill="#C3B88D"/>
<path d="M54.2441 76.9314L34.3239 76.9588C33.944 76.5853 33.9338 75.3173 34.3957 75.0637C40.956 75.588 47.5128 75.6703 54.1415 75.122C54.5316 75.2693 54.6069 76.4688 54.2407 76.9314H54.2441Z" fill="#C3B88D"/>
<path d="M53.9329 74.3782L45.2783 74.7483L34.5601 74.2686C34.2932 74.2548 34.1837 74.0492 34.1221 73.9533C34.0297 73.8128 34.0468 73.2439 34.3925 73.2439L54.1177 73.2542C54.412 73.2542 54.4085 73.5146 54.4393 73.6243C54.4872 73.7854 54.412 74.3611 53.9294 74.3816L53.9329 74.3782Z" fill="#D1CDAF"/>
<path d="M8.96921 107.928C8.39771 109.018 8.61331 110.358 9.00343 111.492C6.97068 111.818 5.49574 112.846 3.94209 113.815C3.10709 113.586 3.07287 109.532 2.98047 108.627C4.90713 107.441 7.01517 107.613 8.97263 107.928H8.96921Z" fill="#C3B88D"/>
<path d="M29.5023 137.064C29.5296 136.526 29.1703 135.638 29.711 135.159C30.0258 134.881 30.7137 134.956 30.9532 134.696L38.4272 134.638C38.9029 135.145 38.9953 136.632 38.4854 137.232C35.6142 137.424 32.1921 137.674 29.4988 137.064H29.5023Z" fill="#C3B88D"/>
<path d="M78.5002 100.423C78.3805 101.972 77.6515 103.37 77.0971 104.528C75.1465 103.812 73.8427 102.16 72.3027 100.817C73.1377 99.484 73.9625 98.3292 74.9412 97.3765C75.9097 98.6204 77.4051 99.2921 78.4968 100.426L78.5002 100.423Z" fill="#C3B88D"/>
<path d="M83.3188 102.178C83.4523 103.675 83.9759 104.799 83.4796 105.971C82.9253 105.951 77.573 105.701 78.059 104.539C78.5415 103.223 78.8153 102.061 79.4757 101.098C80.8035 101.269 82.4017 101.119 83.3188 102.181V102.178Z" fill="#C3B88D"/>
<path d="M19.3041 89.8611C19.6531 91.7802 19.0987 93.9392 19.2869 96.1598C16.6314 94.9398 16.4329 92.212 16.2139 89.8954C17.374 89.8954 16.9941 86.1977 18.8694 85.0874C18.8044 86.8934 19.0337 88.3807 19.3041 89.8646V89.8611Z" fill="#D7D28B"/>
<path d="M70.9476 92.1745C70.3966 93.8057 70.0441 95.3341 68.3022 95.8173L68.3365 85.6839C70.7046 84.858 70.5745 91.2903 70.9476 92.1745Z" fill="#D7D28B"/>
<path d="M59.3261 133.671C55.9758 134.202 52.7077 134.076 49.419 133.692C48.981 133.64 49.0494 132.085 49.4567 132.081L59.5896 131.968C59.6546 132.15 59.7847 133.596 59.3261 133.668V133.671Z" fill="#D1CDAF"/>
<path d="M32.9757 141.145C30.1456 140.648 24.9782 143.267 24.6907 146.584C28.2497 146.577 27.9965 148.092 31.6376 146.752C31.8019 146.69 35.4602 146.306 34.7176 147.307C31.1038 147.684 27.7672 147.879 24.3485 147.228C23.931 147.149 23.2808 147.509 23.1473 147.091C22.2507 144.295 28.1471 138.928 32.9757 141.149V141.145Z" fill="#444444"/>
<path d="M51.729 147.259L51.8556 146.591C56.9786 146.245 58.0839 148.818 63.2958 146.049C59.1961 139.267 55.9314 141.769 54.826 141.132C59.0969 139.559 64.0727 142.143 64.9042 147.101C60.4726 147.975 56.0717 147.612 51.7256 147.256L51.729 147.259Z" fill="#444444"/>
<path d="M10.7419 116.944C10.9164 115.539 10.3723 112.887 8.36353 113.061C10.1841 112.671 11.9944 112.924 13.5378 114.347C14.7971 115.505 16.0257 117.568 15.3755 119.487C15.1599 120.128 13.9621 119.319 13.8526 118.877C13.4625 117.325 12.0526 116.924 10.7419 116.944Z" fill="#C3B88D"/>
<path d="M38.4374 133.603C35.1282 134.226 31.8908 134.038 28.5508 133.723C28.1128 133.681 28.1196 132.215 28.4926 132.208L38.1499 132.03C38.7248 132.019 38.8515 133.527 38.4374 133.606V133.603Z" fill="#D1CDAF"/>
<path d="M77.0973 104.525C76.7312 105.289 76.608 106.667 75.7969 106.698C73.7299 105.796 71.8649 104.251 70.5542 102.489C70.6637 101.705 71.7109 101.088 72.3029 100.81C73.8429 102.154 75.1467 103.805 77.0973 104.522V104.525Z" fill="#D1CDAF"/>
<path d="M14.7561 87.7537C14.9648 89.2033 14.6158 90.4952 14.8793 91.6192L13.4146 93.9393C12.3435 92.942 11.3819 91.9996 10.6837 90.8927C10.54 89.8681 14.0443 87.6646 14.7527 87.7571L14.7561 87.7537Z" fill="#C3B88D"/>
<path d="M105.316 85.3479C105.159 88.23 103.085 90.5123 100.005 90.9098C96.9559 91.3039 97.5924 93.6308 95.8471 94.9194C95.1148 94.1517 95.7171 93.0482 96.2475 92.5273C96.9559 91.8283 97.3529 90.9098 98.0715 90.0874C99.9024 89.7789 101.637 89.3026 103.064 88.1614C103.961 87.4486 104.618 85.3068 105.313 85.3445L105.316 85.3479Z" fill="#D7D28B"/>
<path d="M87.7298 97.4417C87.1685 98.0208 87.5552 99.7411 86.4396 100.087C85.916 98.4286 86.3062 96.818 87.3841 95.5294C88.1883 94.5665 90.1903 93.6172 91.4975 94.6453C92.1854 95.1867 91.1143 96.2148 90.7549 96.6946C90.2758 97.3389 88.8864 97.2155 87.7298 97.4382V97.4417Z" fill="#D7D28B"/>
<path d="M36.1068 147.262L35.9734 146.577C35.5798 144.538 34.8201 142.297 32.9756 141.142C36.1684 141.433 38.4373 143.959 39.2449 146.841C37.9445 147.252 37.0377 147.16 36.1068 147.259V147.262Z" fill="#C3B88D"/>
<path d="M95.902 104.597C95.4982 105.289 94.7077 105.934 93.9548 106.393C92.7091 107.157 91.2376 106.605 90.714 105.265C90.1836 103.912 90.0741 102.301 90.7346 101.115C91.6414 103.233 93.5886 104.59 95.8986 104.597H95.902Z" fill="#C3B88D"/>
<path d="M5.70451 99.2133C5.46153 99.6417 4.48965 99.2167 4.23983 99.7513C3.09341 102.208 3.05577 104.864 2.87782 107.383C2.3645 107.623 2.07704 107.966 1.47817 107.962C1.38235 104.748 1.8546 101.753 2.92915 98.7609C4.02081 98.4902 4.83871 99.0796 5.70451 99.2167V99.2133Z" fill="#D7D28B"/>
<path d="M53.8745 141.485C53.0327 143.157 52.208 144.727 51.8555 146.591L51.7289 147.259C50.7228 147.177 49.6345 147.259 48.6387 146.711C49.2512 144.065 51.5578 141.889 53.8745 141.485Z" fill="#C3B88D"/>
<path d="M74.3733 96.105C73.9421 97.7259 72.7136 98.826 71.6596 99.7547C71.2044 98.7129 70.4344 97.8356 70.1333 96.7321L72.0394 93.9631C73.2782 93.8946 73.1345 95.6423 74.3767 96.1084L74.3733 96.105Z" fill="#C3B88D"/>
<path d="M12.7406 94.94C13.0828 95.6083 14.2395 96.0743 13.6886 96.8899C12.8536 98.1236 11.9638 99.2957 11.228 100.793C10.3143 100.57 9.58199 100.046 9.01733 99.4396C9.68807 99.3505 11.3923 94.7344 12.7406 94.94Z" fill="#D1CDAF"/>
<path d="M10.0266 91.931C9.60914 91.7219 9.09924 91.8008 8.72281 92.2737L6.12198 95.5224C5.49573 96.3037 5.10561 97.1639 5.26645 98.0686C4.52385 97.9967 4.0071 98.0789 3.3877 97.6711C4.6094 94.933 6.39233 92.5341 8.50037 90.5979C9.41408 90.7555 9.5715 91.6568 10.0266 91.9344V91.931Z" fill="#D7D28B"/>
<path d="M58.012 138.167C58.231 138.445 58.2926 138.798 58.3029 139.144C55.5617 139.257 53.0054 140.045 50.7913 141.18C50.7913 140.155 50.8152 139.123 51.0445 138.123C53.3647 138.075 55.6918 138.027 58.012 138.171V138.167Z" fill="#C3B88D"/>
<path d="M55.8834 134.672C56.1845 135.265 57.2864 135.186 57.615 134.672C58.0017 134.672 58.183 134.672 58.3336 134.658L58.2002 137.132C56.0784 137.561 54.1004 137.389 52.1464 137.359C52.0198 137.191 51.77 137.18 51.4243 136.882C51.811 136.265 55.767 135.224 55.216 134.758C55.5719 134.771 55.7431 134.672 55.8799 134.672H55.8834Z" fill="#C3B88D"/>
<path d="M19.3042 89.8613C19.0339 88.3775 18.8046 86.8936 18.8696 85.0842C16.9943 86.1979 17.3742 89.8922 16.214 89.8922C15.9745 87.3528 16.0395 83.8196 19.2871 82.4009L19.3042 89.8613Z" fill="#444444"/>
<path d="M37.0617 138.157L37.0103 141.142C35.9597 140.573 34.5704 140.398 33.6601 139.565C33.1057 139.058 32.2741 138.757 31.6102 139.384H30.9258C30.9429 139.069 30.587 139.038 30.5836 139.367L29.8752 139.264C29.5638 138.955 29.5159 138.489 29.8444 138.181C31.6615 138.047 35.2616 138.058 37.0617 138.157Z" fill="#C3B88D"/>
<path d="M70.9476 92.1745C70.578 91.2904 70.7046 84.858 68.3365 85.6839L68.2612 83.3604C68.6069 83.3844 68.6137 82.9355 68.251 82.9835C68.3263 82.5688 68.5145 82.4626 68.6959 82.5654C70.975 83.8505 72.1454 88.6173 70.9408 92.1745H70.9476Z" fill="#444444"/>
<path d="M83.4795 105.971C83.0346 107.023 82.2851 107.023 81.2003 107.404C80.4851 107.657 79.7835 108.497 79.0341 108.212C78.5037 108.01 77.1622 107.743 77.1314 106.996C77.0869 106.03 77.7987 105.252 78.0622 104.535C77.5763 105.697 82.9285 105.947 83.4829 105.968L83.4795 105.971Z" fill="#D1CDAF"/>
<path d="M8.36701 106.855C8.16168 104.703 8.35674 102.589 8.71265 100.461C9.28414 100.892 10.7454 101.026 10.6393 101.903L10.037 106.89C9.6332 107.304 8.75713 106.872 8.36701 106.855Z" fill="#D1CDAF"/>
<path d="M55.216 134.757C55.7635 135.224 51.8075 136.265 51.4243 136.882C51.7699 137.18 52.0197 137.191 52.1463 137.358C51.2634 137.201 50.0417 137.499 49.2101 136.889C48.7789 136.392 49.0835 135.162 49.3094 134.521L55.216 134.761V134.757Z" fill="#D1CDAF"/>
<path d="M6.63199 124.713C3.4186 123.329 2.23454 119.271 3.92165 116.245C4.22622 119.261 5.08176 122.105 6.63199 124.713Z" fill="#444444"/>
<path d="M70.1332 96.7322C70.4344 97.8357 71.2044 98.7129 71.6595 99.7547C71.0812 100.262 70.7492 101.513 69.9382 101.41C68.5864 100.803 68.0799 98.8877 68.7575 97.5409C69.0347 96.9926 69.7465 96.9412 70.1298 96.7322H70.1332Z" fill="#D1CDAF"/>
<path d="M96.9524 102.174C96.7744 101.081 97.3733 99.58 96.7813 98.456C95.8915 96.77 93.431 97.1058 92.1443 98.0551C92.4797 97.027 93.301 96.2628 94.3379 95.9681C95.2379 95.711 96.4254 95.8653 97.0619 96.8796C98.0543 98.4526 97.8456 100.684 96.949 102.174H96.9524Z" fill="#444444"/>
<path d="M2.98047 108.624C3.07287 109.528 3.10709 113.582 3.94209 113.812C3.51091 114.179 3.6341 115.022 2.75119 115.166C2.50137 113.754 0.0545446 107.599 2.97705 108.624H2.98047Z" fill="#D7D28B"/>
<path d="M14.7561 87.7538C14.0477 87.6612 10.54 89.8682 10.6871 90.8894C10.0677 90.6152 9.59206 90.509 9.17456 89.7962C10.9233 88.3466 12.5693 87.0512 14.7047 86.2288C15.0812 86.7017 14.6876 87.2843 14.7561 87.7503V87.7538Z" fill="#D7D28B"/>
<path d="M51.0445 138.119C50.8152 139.123 50.7878 140.151 50.7912 141.176C50.2471 142.043 49.5353 142.379 48.8167 143.208C48.8851 141.591 48.6148 139.881 49.1281 138.164C49.573 137.749 50.5791 138.13 51.0411 138.119H51.0445Z" fill="#D1CDAF"/>
<path d="M37.0103 141.142L37.0616 138.157C37.438 138.178 38.2936 137.835 38.6837 138.198C39.0943 139.723 39.0088 141.275 38.9232 142.992C38.1156 142.454 37.551 141.762 37.0103 141.142Z" fill="#D1CDAF"/>
<path d="M78.5004 100.423C77.4053 99.2888 75.9133 98.6171 74.9448 97.3732C75.5026 95.221 75.9646 96.8454 78.9727 98.9667C79.4792 99.3231 78.7092 100.17 78.5004 100.423Z" fill="#D7D28B"/>
<path d="M13.4146 93.9358L14.8792 91.6157C15.1325 92.6986 15.8545 93.5245 15.899 94.7102C15.9196 95.2311 15.1051 95.9131 14.5747 95.8172C13.6986 95.6629 13.7602 94.4087 13.4111 93.9323L13.4146 93.9358Z" fill="#D1CDAF"/>
<path d="M83.3186 102.178C82.4015 101.115 80.8034 101.266 79.4756 101.095C79.5167 100.509 79.4961 99.748 79.8554 99.4875C81.0669 99.6657 82.1722 100.125 83.4008 100.142C83.6711 100.944 83.2605 101.554 83.3152 102.178H83.3186Z" fill="#D7D28B"/>
<path d="M74.3732 96.1052C73.131 95.6391 73.2747 93.8948 72.0359 93.9599C72.2754 93.2848 72.1899 92.5103 72.7066 91.8386L74.6059 94.7001C74.8284 95.036 75.0131 95.3752 74.8797 95.7385C74.8181 95.903 74.6025 96.0366 74.3766 96.1052H74.3732Z" fill="#D7D28B"/>
<path d="M9.00352 111.492C8.61339 110.358 8.3978 109.018 8.9693 107.928C10.2629 108.137 10.2423 108.548 10.3484 109.905C10.3826 110.33 10.6564 111.081 10.1978 111.403C9.83852 111.656 9.37311 111.434 9.00352 111.492Z" fill="#D1CDAF"/>
<path d="M88.1268 107.106C87.8599 107.339 87.5314 107.414 87.2781 107.174C86.5766 106.513 88.7976 103.154 88.8865 102.938C89.328 104.679 89.328 106.054 88.1234 107.106H88.1268Z" fill="#D1CDAF"/>
<path d="M84.4821 104.124C84.1981 102.771 84.0201 101.383 84.4239 99.844C85.1631 100.214 85.4882 101.146 85.5738 101.736C85.697 102.575 85.1563 103.302 84.4821 104.124Z" fill="#D7D28B"/>
<path d="M10.0747 125.409C10.2937 124.521 10.5299 123.627 10.4477 122.708C10.8618 122.966 11.536 122.863 11.8029 123.209C12.128 123.627 12.2615 124.151 11.9877 124.628C11.5496 125.392 10.6838 125.248 10.0781 125.405L10.0747 125.409Z" fill="#C3B88D"/>
<path d="M30.9566 134.692C30.717 134.953 30.0292 134.878 29.7144 135.155C29.1737 135.635 29.533 136.522 29.5056 137.06C29.2763 137.03 28.6193 137.376 28.4276 136.951C28.1504 136.331 28.0957 135.093 28.4379 134.6C29.1874 134.302 30.2037 134.727 30.9566 134.689V134.692Z" fill="#D7D28B"/>
<path d="M95.2551 92.7261C94.841 93.9872 94.4064 94.8953 93.0684 94.9604C93.1642 93.7576 93.5338 92.5033 94.5125 91.7597C94.9711 91.4101 95.4331 92.1777 95.2551 92.7261Z" fill="#D1CDAF"/>
<path d="M58.2002 137.129L58.3337 134.655C58.8264 134.6 59.2029 134.507 59.3945 134.675C59.6649 134.908 59.6957 136.721 59.3637 137.053C59.0797 137.341 58.5424 137.064 58.2002 137.132V137.129Z" fill="#D7D28B"/>
<path d="M29.8444 138.181C29.5158 138.49 29.5638 138.959 29.8752 139.264C29.5603 139.302 28.7356 139.593 28.4858 139.367C28.236 139.141 28.2428 138.383 28.4687 138.147C28.7116 137.89 29.5227 138.205 29.8444 138.181Z" fill="#D7D28B"/>
<path d="M58.3028 139.144C58.2926 138.798 58.231 138.445 58.012 138.167C58.6279 138.205 59.2439 137.763 59.4321 138.257C59.5485 138.555 59.6888 139.295 59.1652 139.442C58.9257 139.511 58.5458 139.237 58.3028 139.144Z" fill="#D7D28B"/>
<path d="M66.8274 122.664C66.8138 123.051 66.8343 123.236 66.848 123.384C66.5879 123.342 65.7905 123.599 65.7871 123.044C65.7837 122.489 66.5708 122.719 66.8274 122.664Z" fill="#C3B88D"/>
<path d="M33.66 139.565L31.6101 139.384C32.2774 138.76 33.1056 139.062 33.66 139.565Z" fill="#D7D28B"/>
<path d="M57.6149 134.668C57.283 135.182 56.181 135.265 55.8833 134.668H57.6149Z" fill="#D1CDAF"/>
<path d="M35.9734 146.577L36.1069 147.263C35.6826 147.307 35.4909 147.28 35.3232 147.287C35.3232 147.143 35.3438 146.988 35.4156 146.838C35.5115 146.642 35.7442 146.546 35.9734 146.581V146.577Z" fill="#444444"/>
<path d="M66.8479 85.7557C66.492 85.8174 66.4578 85.5158 66.4578 85.2416C66.4578 84.9675 66.4954 84.6659 66.8513 84.7276C66.8308 85.2314 66.8137 85.5124 66.8513 85.7522L66.8479 85.7557Z" fill="#444444"/>
<path d="M68.2647 83.3603L68.2544 82.9833C68.6171 82.9354 68.6103 83.3843 68.2647 83.3603Z" fill="#D7D28B"/>
<path d="M30.9257 139.387C30.8128 139.387 30.6964 139.387 30.5835 139.367C30.5869 139.038 30.9428 139.065 30.9257 139.387Z" fill="#D7D28B"/>
<path d="M59.3021 81.3076C61.0166 81.3076 62.4778 82.0067 62.7071 83.7305L63.0254 86.1259L62.998 101.811C62.998 102.551 62.8611 103.662 62.6729 104.227C61.6976 107.164 59.3705 109.299 56.2051 109.306L27.5139 109.378C25.8815 109.381 24.7761 108.233 24.7761 106.622L24.759 84.3919C24.759 82.7229 25.8883 81.5612 27.5378 81.5886C28.0751 81.5989 28.5302 81.5989 28.8793 81.4173L59.3055 81.311L59.3021 81.3076ZM31.2577 108.418C31.3638 108.394 31.4972 108.476 31.6102 108.487L34.0228 108.706L55.8834 108.449C58.9565 108.72 62.0398 106.119 62.0432 102.818L62.0638 84.0389C62.0638 83.0485 61.3999 82.5893 60.6265 82.579L27.88 82.2706C27.2606 82.2637 26.672 82.5379 26.3538 82.7161C25.8952 82.9697 25.6077 83.6928 25.5872 84.3919C25.3853 91.7529 25.3648 98.9426 25.6009 106.297C25.6283 107.15 25.9089 108.209 26.7713 108.401C28.3078 108.74 29.8649 108.747 31.2577 108.418Z" fill="#212118"/>
<path d="M34.5155 121.776C33.6394 122.678 31.7504 122.362 30.7101 121.961C30.2549 120.909 30.5698 119.998 30.2686 118.935C29.2523 118.723 28.3796 118.953 27.4283 118.624C26.8054 117.458 26.9081 115.992 27.4283 114.782L30.296 114.522L30.734 111.485C31.7504 111.191 33.5402 110.827 34.4026 111.612C35.0665 112.215 34.5155 113.562 34.7927 114.34L37.835 114.779C38.3449 116.019 38.3312 117.438 37.8555 118.672L34.8338 118.966C34.5463 119.789 35.0288 120.872 34.5155 121.78V121.776ZM33.8037 121.005C34.1904 119.916 33.4854 118.415 34.1425 118.305L37.1814 117.808C37.4928 117.366 37.5236 115.676 37.041 115.608L34.0433 115.169C33.6839 114.179 34.2212 113.024 33.7045 112.229C33.3007 111.742 32.0516 112.034 31.4151 112.13C31.1652 113.254 31.5211 114.268 31.0831 115.251C30.1249 115.539 28.7595 115.025 28.0408 115.618C27.6507 116.019 27.7328 117.65 28.2359 117.887C29.0812 118.288 30.3508 117.743 31.1173 118.277C31.4767 119.213 31.0215 120.436 31.5383 121.17C31.8839 121.602 33.6052 121.564 33.8037 121.002V121.005Z" fill="#212118"/>
<path d="M53.8334 118.332C53.8334 119.813 52.6357 121.012 51.1573 121.012C49.679 121.012 48.4812 119.813 48.4812 118.332C48.4812 116.852 49.679 115.652 51.1573 115.652C52.6357 115.652 53.8334 116.852 53.8334 118.332ZM49.9664 117.119C49.0527 117.475 49.2204 118.425 49.7097 119.237C50.247 120.131 51.2429 120.536 52.225 119.843C53.0942 119.23 53.3954 117.931 52.5501 116.989C51.8999 116.266 50.4695 115.992 49.963 117.119H49.9664Z" fill="#212118"/>
<path d="M60.6332 114.631C60.6332 116.111 59.4355 117.311 57.9537 117.311C56.4719 117.311 55.2742 116.111 55.2742 114.631C55.2742 113.151 56.4719 111.951 57.9537 111.951C59.4355 111.951 60.6332 113.151 60.6332 114.631ZM59.8153 114.604C59.8153 113.555 58.9632 112.702 57.9161 112.702C56.8689 112.702 56.0168 113.552 56.0168 114.604C56.0168 115.656 56.8689 116.506 57.9161 116.506C58.9632 116.506 59.8153 115.656 59.8153 114.604Z" fill="#212118"/>
<path d="M59.3022 80.9649V81.3075L28.876 81.4138C28.568 81.2424 27.9862 81.5269 27.8528 80.9717L59.3022 80.9614V80.9649Z" fill="#444444"/>
<path d="M49.1555 125.542C48.1768 126.361 44.9258 128.801 44.0531 127.167C43.7965 126.69 43.8307 125.885 44.3646 125.529C45.9285 124.477 48.4266 122.503 49.3643 123.85C49.6449 124.25 49.7099 125.08 49.1555 125.542ZM48.365 123.925L44.5973 126.152L45.1551 127.095L48.9228 124.867L48.365 123.925Z" fill="#212118"/>
<path d="M41.9895 125.563C40.7199 126.498 37.6297 128.795 36.8768 127.17C36.6407 126.663 36.6612 125.93 37.1916 125.549C38.4715 124.631 41.2948 122.568 42.2153 123.843C42.5268 124.274 42.5918 125.117 41.9861 125.563H41.9895ZM38.5742 126.728L41.2366 125.155C41.5959 124.943 41.6302 124.528 41.4762 124.336C41.0552 123.825 37.3285 125.978 37.6023 126.653C37.7255 126.958 38.1156 126.999 38.5742 126.728Z" fill="#212118"/>
<path d="M62.6694 104.227C62.8576 103.661 62.9945 102.551 62.9945 101.811L63.0219 86.1258L62.7036 83.7304C62.4743 82.0066 61.0131 81.3075 59.2986 81.3075V80.9648C61.0952 80.9648 63.2648 81.3178 63.282 83.8606L63.412 104.117C63.412 104.302 62.5701 104.251 62.6694 104.227Z" fill="#D7D28B"/>
<path d="M62.649 126.108C62.2897 126.149 61.9646 126.43 61.6087 126.499C60.8593 126.159 59.6718 122.99 59.0387 123.044C57.5432 123.175 60.4931 125.735 60.6095 127.194C60.3699 127.376 60.0585 127.527 59.884 127.78C58.9155 126.704 58.1079 125.419 57.5398 124.086C58.0873 122.948 59.2166 122.729 60.3494 122.328C61.1638 123.558 61.9783 124.796 62.649 126.108Z" fill="#D7D28B"/>
<path d="M62.0297 121.303C63.029 122.431 63.994 123.716 64.4081 125.169C64.1104 125.203 63.8058 125.543 63.4636 125.491C62.3753 124.347 61.9407 122.712 60.7053 121.721C60.9551 121.242 61.5301 121.255 62.0263 121.303H62.0297Z" fill="#D7D28B"/>
<path d="M56.691 124.823C57.6595 125.854 58.3542 127.157 58.9496 128.442L57.9812 128.517C56.0887 126.814 56.0545 124.888 54.8499 125.124C54.8123 124.943 54.9252 124.785 55.045 124.741C55.6849 124.497 55.9176 125.601 56.294 125.443C56.5062 125.354 56.5747 125.001 56.691 124.823Z" fill="#D7D28B"/>
<path d="M63.4669 125.491C63.4053 125.632 63.3711 125.892 63.2719 126.08C63.1247 126.362 62.8646 126.084 62.649 126.108C61.9783 124.792 61.1638 123.558 60.3494 122.328C60.4144 122.095 60.5992 121.927 60.7087 121.721C61.9441 122.715 62.3787 124.346 63.4669 125.491Z" fill="#212118"/>
<path d="M65.3969 124.388C65.3216 124.95 64.8939 125.114 64.4079 125.169C63.9904 123.713 63.0288 122.427 62.0295 121.303C62.0398 121.156 62.4676 120.508 62.6216 120.714L65.3969 124.388Z" fill="#212118"/>
<path d="M57.5396 124.083C58.1077 125.416 58.9153 126.701 59.8838 127.777C59.7674 127.945 59.8153 128.243 59.6271 128.356C59.3944 128.496 59.1651 128.424 58.9495 128.442C58.3541 127.156 57.6594 125.854 56.6909 124.823C56.7217 124.624 56.7594 124.384 56.9373 124.24C57.0982 124.113 57.3377 124.103 57.543 124.079L57.5396 124.083Z" fill="#212118"/>
<path d="M57.9811 128.52C58.3199 128.825 57.7244 129.833 57.4062 129.476C56.951 128.966 56.4343 128.346 56.1948 127.832C55.7054 126.79 54.9696 126.087 54.8533 125.128C56.0579 124.891 56.0921 126.817 57.9845 128.52H57.9811Z" fill="#212118"/>
<path d="M61.6086 126.499C61.6086 126.759 61.6736 127.146 61.4169 127.321C61.1945 127.468 60.8523 127.283 60.6059 127.194C60.4895 125.734 57.5397 123.174 59.0351 123.044C59.6682 122.989 60.8557 126.159 61.6052 126.499H61.6086Z" fill="#212118"/>
<path d="M60.6265 82.5824C58.4568 84.7413 54.583 83.0039 53.1491 84.008C47.0577 83.7955 40.9731 83.7235 34.7038 84.0491C32.5136 84.1622 28.0717 83.4768 27.8937 85.4473C27.3359 91.6398 27.4933 97.6712 27.8937 103.888C27.945 104.683 27.8458 105.409 28.4002 105.923C29.1394 106.612 32.2946 106.896 32.9995 106.9C33.0132 107.315 32.8661 107.74 32.9893 108.326L46.6436 108.336C46.5649 107.753 46.3151 107.393 46.3117 106.968C47.02 106.972 47.7182 106.91 48.7243 107.003C48.7072 107.342 48.43 107.589 48.2931 108.25C50.8699 108.319 53.3715 108.233 55.8834 108.456L34.0228 108.713L31.6102 108.493C31.706 107.99 31.2611 107.853 31.2577 108.425C29.8649 108.757 28.3112 108.747 26.7713 108.408C25.9055 108.216 25.6283 107.157 25.6009 106.304C25.3613 98.9494 25.3853 91.7597 25.5872 84.3987C25.6077 83.6996 25.8952 82.9765 26.3538 82.7229C26.672 82.5447 27.2606 82.2739 27.88 82.2774L60.6265 82.5858V82.5824ZM47.6771 108.161C47.6771 108.065 47.6018 107.99 47.506 107.99C47.4102 107.99 47.3349 108.065 47.3349 108.161C47.3349 108.257 47.4102 108.332 47.506 108.332C47.6018 108.332 47.6771 108.257 47.6771 108.161Z" fill="#D1CDAF"/>
<path d="M55.8835 108.449C53.3717 108.226 50.8735 108.312 48.2932 108.243C48.4301 107.582 48.7039 107.339 48.7244 106.996C49.0632 107.027 49.4362 106.951 50.0556 106.972C50.0727 107.205 49.9495 107.579 50.0864 107.794C50.1891 107.956 53.666 108.24 53.3614 107.596C52.5435 106.962 51.6161 107.647 51.3971 106.921C58.5528 106.376 59.4152 107.325 59.6855 103.528C60.0893 97.7741 60.0175 92.2019 59.8258 86.4687C59.7095 83.0109 56.2736 84.3611 53.1458 84.0081C54.5797 83.004 58.4535 84.7415 60.6232 82.5825C61.3966 82.5894 62.0605 83.052 62.0605 84.0424L62.0399 102.822C62.0365 106.122 58.9532 108.723 55.8801 108.452L55.8835 108.449Z" fill="#C3B88D"/>
<path d="M31.6103 108.487C31.5008 108.476 31.3673 108.394 31.2578 108.418C31.2578 107.842 31.7061 107.983 31.6103 108.487Z" fill="#C3B88D"/>
<path d="M33.8037 121.005C33.6018 121.567 31.8839 121.605 31.5383 121.173C31.0215 120.44 31.4801 119.216 31.1174 118.281C30.3508 117.746 29.0812 118.291 28.2359 117.89C27.7329 117.65 27.6507 116.019 28.0409 115.622C28.7595 115.029 30.1249 115.543 31.0831 115.255C31.5212 114.271 31.1653 113.257 31.4151 112.133C32.0516 112.037 33.3007 111.746 33.7045 112.232C34.2212 113.024 33.684 114.182 34.0433 115.173L37.0411 115.611C37.5236 115.683 37.4928 117.369 37.1814 117.811L34.1425 118.308C33.4855 118.415 34.1904 119.919 33.8037 121.009V121.005Z" fill="#D1CDAF"/>
<path d="M49.9665 117.119L52.3723 117.342C52.5092 118.003 52.451 118.562 52.4236 119.258L49.7065 119.237C49.2171 118.425 49.0494 117.472 49.9631 117.119H49.9665Z" fill="#C3B88D"/>
<path d="M49.71 119.237L52.4271 119.257C52.4511 118.558 52.5093 118.003 52.3758 117.342L49.97 117.119C50.4731 115.992 51.907 116.266 52.5572 116.989C53.4025 117.931 53.1013 119.23 52.2321 119.843C51.2499 120.536 50.2541 120.128 49.7168 119.237H49.71Z" fill="#D1CDAF"/>
<path d="M57.9161 116.506C58.9651 116.506 59.8154 115.654 59.8154 114.604C59.8154 113.553 58.9651 112.702 57.9161 112.702C56.8672 112.702 56.0168 113.553 56.0168 114.604C56.0168 115.654 56.8672 116.506 57.9161 116.506Z" fill="#D1CDAF"/>
<path d="M48.3646 123.919L44.5972 126.15L45.1546 127.094L48.922 124.863L48.3646 123.919Z" fill="#D1CDAF"/>
<path d="M38.5741 126.728C38.1156 126.999 37.7289 126.958 37.6022 126.653C37.3285 125.981 41.0552 123.826 41.4761 124.336C41.6301 124.525 41.5959 124.943 41.2366 125.155L38.5741 126.728Z" fill="#D1CDAF"/>
<path d="M53.1491 84.008C56.2769 84.361 59.7127 83.0108 59.8291 86.4686C60.0207 92.2018 60.0926 97.774 59.6888 103.528C59.4219 107.325 58.5561 106.376 51.4004 106.921C50.9658 106.955 50.4901 106.986 50.0555 106.972C49.4361 106.951 49.0665 107.027 48.7243 106.996C47.7181 106.903 47.0166 106.965 46.3116 106.962L32.9995 106.897C32.2946 106.893 29.1394 106.612 28.4002 105.92C27.8492 105.406 27.9485 104.679 27.8937 103.884C27.4933 97.6678 27.3359 91.6364 27.8937 85.4439C28.0717 83.4734 32.5136 84.1588 34.7038 84.0457C40.9731 83.7202 47.0611 83.7921 53.1491 84.0046V84.008ZM38.1054 106.023C38.0472 106.201 38.2457 106.276 38.4818 106.276H48.3444C48.5839 106.273 48.7448 106.067 48.7071 105.937C51.7357 105.93 54.4837 106.067 57.3104 105.704C58.4431 105.557 59.2336 104.751 58.9907 103.569C58.7135 102.226 59.1892 101.023 59.2336 99.7514C59.4321 94.3128 59.3226 90.9579 58.977 85.3308C55.0313 84.7962 51.3011 84.6934 47.3314 84.69C40.7849 84.6831 35.1657 84.5529 28.6808 85.1835C28.4652 91.6672 28.4789 97.9111 28.6295 104.289C28.6534 105.252 29.2044 105.779 30.1112 105.803L38.1122 106.023H38.1054Z" fill="#212118"/>
<path d="M46.3082 106.962C46.3082 107.387 46.5614 107.746 46.6401 108.329L32.9858 108.319C32.8626 107.736 33.0098 107.311 32.9961 106.893L46.3082 106.958V106.962Z" fill="#C3B88D"/>
<path d="M51.3971 106.92C51.6127 107.65 52.5401 106.962 53.3614 107.596C53.6625 108.24 50.1891 107.955 50.0864 107.794C49.9495 107.578 50.0727 107.205 50.0556 106.972C50.4902 106.986 50.9659 106.955 51.4005 106.92H51.3971Z" fill="#D1CDAF"/>
<path d="M47.5061 108.332C47.6006 108.332 47.6772 108.256 47.6772 108.161C47.6772 108.066 47.6006 107.99 47.5061 107.99C47.4116 107.99 47.335 108.066 47.335 108.161C47.335 108.256 47.4116 108.332 47.5061 108.332Z" fill="#C3B88D"/>
<path d="M48.7039 105.937L38.1055 106.023L30.1045 105.803C29.1977 105.779 28.6467 105.252 28.6228 104.289C28.4722 97.9077 28.4585 91.6672 28.6741 85.1834C35.159 84.5563 40.7782 84.6865 47.3247 84.69C51.2944 84.69 55.0246 84.7962 58.9703 85.3308C59.3159 90.9544 59.4254 94.3094 59.2269 99.7513C59.179 101.023 58.7033 102.226 58.984 103.569C59.2304 104.751 58.4398 105.557 57.3037 105.704C54.477 106.067 51.7256 105.93 48.7004 105.937H48.7039ZM33.975 104.247C34.4507 104.648 35.0598 104.995 35.5218 104.854C36.2781 104.624 36.5142 103.895 36.391 103.439C36.1788 102.661 35.4773 102.418 34.8682 102.524C34.2077 102.644 34.0263 103.367 33.975 104.247C33.6773 104.158 33.3761 103.932 33.3385 103.699C33.1331 102.465 35.1145 102.239 35.3199 101.763C35.5389 101.259 35.2241 100.577 35.6484 100.262C35.9427 100.043 36.3671 100.087 36.7127 100.039C36.569 100.797 36.0488 101.749 36.456 102.346C37.1233 103.326 38.15 103.219 38.9576 102.798C39.82 102.349 39.7652 101.256 39.4504 100.663C38.8892 99.6108 37.8351 99.8816 36.7161 100.036C35.9564 98.922 35.5971 97.3011 34.7244 96.3724C33.6978 95.2792 33.0407 94.6178 33.3077 92.8598C33.4069 92.2018 33.0236 91.0949 34.0366 91.232C33.2974 93.038 34.2419 94.5767 35.4602 95.968C36.1651 96.7733 36.2199 97.9591 36.9009 98.4902C37.9583 99.3127 39.0534 98.8535 40.1998 99.1996C41.3463 99.5457 41.9588 100.814 43.1189 100.882C44.5357 100.968 45.4768 100.149 46.7122 99.6759C47.619 99.3298 48.7928 100.142 49.9187 99.5115C50.699 99.0728 51.0001 98.1818 51.7598 97.2737C52.4751 96.4169 54.1074 95.9749 54.4051 94.6486C54.8329 95.5225 54.2614 96.1668 53.4161 96.6294C52.2663 97.26 51.996 98.713 51.2431 99.6245C50.3328 100.728 48.5191 99.7411 47.4787 100.276C45.5966 101.242 42.3284 102.897 40.4565 100.012L39.8542 102.877C39.6318 103.936 38.1158 103.439 37.096 103.566C36.569 103.631 36.5347 105.519 37.072 105.519L54.4907 105.55C55.8801 105.55 57.1634 105.019 58.6075 104.84L58.6315 85.7729L53.8302 85.7386L52.4511 85.156C52.4511 85.156 44.2517 84.5563 46.4555 86.1293C47.6909 87.0134 50.0316 85.9819 49.7373 87.1745C49.1042 86.8455 48.0434 87.5206 47.4069 87.3116C46.3323 86.6844 45.4939 86.0128 44.4125 85.7729C43.1668 85.4919 42.2189 86.9449 41.1923 86.9483C38.9645 86.9483 37.2157 87.4795 36.5416 89.6864C35.929 90.197 34.4472 90.5672 34.04 91.232C34.1803 89.94 35.8811 89.6076 36.2541 88.8091C37.0891 87.0237 38.3485 86.1156 40.6345 86.4514C41.2641 86.4171 42.2805 85.7523 43.0779 85.3034C38.831 84.8373 34.786 84.9812 30.5802 85.6872C29.3448 85.8962 29.1429 87.0134 29.1532 88.1683L29.3038 104.823L32.4932 105.067C32.9073 105.097 33.3282 105.478 33.5404 105.279C33.8723 104.967 33.9647 104.573 33.9818 104.241L33.975 104.247Z" fill="#C3B88D"/>
<path d="M48.7038 105.937C48.7449 106.067 48.5806 106.273 48.3411 106.273H38.4785C38.2423 106.276 38.0439 106.201 38.102 106.023L48.7004 105.937H48.7038Z" fill="#D1CDAF"/>
<path d="M54.4017 94.6487C54.7918 92.8976 53.4059 91.5474 52.5195 90.0669C51.7598 88.8024 51.1267 87.6167 49.7305 87.1746C50.0248 85.982 47.6875 87.0101 46.4487 86.1294C44.2448 84.5564 52.4306 85.1493 52.4443 85.1561L53.8234 85.7387L58.6246 85.773L58.6007 104.84C57.1565 105.019 55.8732 105.553 54.4838 105.55L37.0652 105.519C36.5279 105.519 36.5621 103.627 37.0891 103.566C38.1089 103.439 39.6249 103.932 39.8474 102.877L40.4497 100.012C42.325 102.901 45.5931 101.242 47.4719 100.276C48.5122 99.7412 50.3259 100.728 51.2362 99.6247C51.9891 98.7131 52.2595 97.2601 53.4093 96.6295C54.2546 96.1669 54.8261 95.5226 54.3983 94.6487H54.4017Z" fill="#F4EFD2"/>
<path d="M34.0332 91.2321C33.0202 91.0984 33.4069 92.2019 33.3043 92.8599C33.0339 94.6213 33.691 95.2827 34.721 96.3725C35.5937 97.3012 35.9496 98.9221 36.7127 100.036C36.3671 100.084 35.9461 100.036 35.6484 100.259C35.2241 100.574 35.5423 101.256 35.3199 101.76C35.1111 102.236 33.1297 102.462 33.3385 103.696C33.3761 103.929 33.6773 104.155 33.975 104.244C33.9579 104.577 33.8621 104.971 33.5335 105.283C33.3214 105.481 32.9004 105.101 32.4864 105.07L29.2969 104.827L29.1464 88.1718C29.1361 87.017 29.338 85.8964 30.5734 85.6907C34.7826 84.9814 38.8242 84.8374 43.071 85.3069C42.2771 85.7593 41.2573 86.4207 40.6276 86.4549C38.3416 86.1191 37.0823 87.0272 36.2473 88.8127C35.8743 89.6112 34.1735 89.9401 34.0332 91.2355V91.2321Z" fill="#F4EFD2"/>
<path d="M49.727 87.1778C51.1232 87.6199 51.7563 88.8056 52.516 90.0702C53.4058 91.5472 54.7883 92.9008 54.3982 94.652C54.1039 95.9782 52.4681 96.4168 51.7529 97.277C50.9932 98.1886 50.692 99.0796 49.9118 99.5148C48.7859 100.145 47.6121 99.3366 46.7052 99.6793C45.4664 100.149 44.5288 100.968 43.112 100.886C41.9519 100.817 41.3222 99.5422 40.1929 99.203C39.0636 98.8637 37.9514 99.316 36.894 98.4936C36.213 97.9624 36.1582 96.7767 35.4533 95.9713C34.235 94.58 33.2905 93.0448 34.0296 91.2353C34.4369 90.5705 35.9187 90.2004 36.5312 89.6898C37.2054 87.4828 38.9541 86.9551 41.1819 86.9517C42.2085 86.9517 43.1565 85.4986 44.4021 85.7762C45.4835 86.0195 46.3254 86.6912 47.3965 87.3149C48.033 87.5239 49.0939 86.8488 49.727 87.1778ZM46.5855 98.802C47.8448 98.7163 48.6969 99.4908 49.8297 98.7232C50.4388 98.3119 50.5723 96.9172 51.1711 96.5539C52.5023 95.7555 53.5016 95.3442 53.6419 93.8124C53.772 92.3868 52.321 92.0646 51.7871 91.064C51.178 89.9297 51.4073 88.7234 49.9631 88.0414C49.1658 87.6645 47.8585 88.2642 47.0577 88.1408C46.0927 87.3869 45.3295 86.585 44.0907 86.537C42.8519 86.489 42.4413 87.5891 41.4215 87.9318C40.6207 88.2025 39.529 87.5548 38.5434 87.99C37.7461 88.343 37.6982 89.7309 37.1096 90.1421C35.8879 90.9989 34.7414 91.1496 34.5738 92.75C34.4163 94.2476 35.6894 94.4978 36.3362 95.5498C36.8324 96.3586 36.6955 97.4689 37.4107 98.0035C38.4818 98.8089 39.6043 98.0584 40.5385 98.3976C41.6234 98.7917 42.1641 100.07 43.4371 100.2C44.7957 100.337 45.528 98.8671 46.5855 98.7952V98.802Z" fill="#212118"/>
<path d="M36.7092 100.039C37.8282 99.885 38.8822 99.6143 39.4435 100.666C39.7617 101.259 39.8131 102.349 38.9507 102.801C38.143 103.223 37.1164 103.329 36.4491 102.349C36.0419 101.749 36.562 100.8 36.7058 100.043L36.7092 100.039ZM38.7933 101.461C38.7933 100.961 38.386 100.553 37.8864 100.553C37.3868 100.553 36.9795 100.961 36.9795 101.461C36.9795 101.962 37.3868 102.37 37.8864 102.37C38.386 102.37 38.7933 101.962 38.7933 101.461Z" fill="#212118"/>
<path d="M33.9749 104.247C34.0228 103.367 34.2041 102.64 34.868 102.524C35.4772 102.414 36.1787 102.661 36.3909 103.439C36.5141 103.898 36.278 104.624 35.5217 104.854C35.0631 104.995 34.4505 104.648 33.9749 104.247Z" fill="#212118"/>
<path d="M46.5854 98.8022C45.5313 98.8741 44.7956 100.344 43.437 100.207C42.164 100.077 41.6233 98.7987 40.5384 98.4046C39.6008 98.0654 38.4817 98.8159 37.4106 98.0105C36.6988 97.4759 36.8323 96.3656 36.3361 95.5569C35.6893 94.5048 34.4162 94.258 34.5737 92.7571C34.7413 91.1567 35.8878 91.0025 37.1095 90.1491C37.6981 89.7379 37.746 88.35 38.5433 87.997C39.5289 87.5618 40.6206 88.2095 41.4214 87.9388C42.4377 87.5926 42.8826 86.496 44.0906 86.544C45.2986 86.592 46.096 87.3939 47.0576 88.1478C47.8584 88.2712 49.1657 87.6715 49.963 88.0484C51.4072 88.7304 51.1779 89.9367 51.787 91.071C52.3209 92.0717 53.7719 92.3938 53.6418 93.8194C53.5015 95.3547 52.5022 95.7625 51.171 96.5609C50.5687 96.9208 50.4387 98.3155 49.8296 98.7302C48.6968 99.4978 47.8413 98.7233 46.5854 98.809V98.8022Z" fill="white"/>
<path d="M37.8864 102.369C38.3872 102.369 38.7932 101.963 38.7932 101.461C38.7932 100.96 38.3872 100.553 37.8864 100.553C37.3855 100.553 36.9795 100.96 36.9795 101.461C36.9795 101.963 37.3855 102.369 37.8864 102.369Z" fill="white"/>
<path d="M68.2273 33.7553L68.3779 62.8911C57.297 65.1563 61.667 61.7568 55.4969 61.8836C53.9125 61.9145 52.6839 62.5622 51.8421 63.5183C51.3767 64.046 50.6751 65.2009 51.1645 66.1913C51.5101 66.8904 52.3178 67.5929 53.2999 67.8328C53.5189 67.8876 59.5008 68.4908 58.6179 67.2502L60.1237 66.3866C61.934 65.3448 65.0139 66.2598 67.1938 66.2016C67.0056 67.9013 64.7949 69.3886 62.6663 69.3783L26.0015 69.2001C23.6266 69.1898 21.5801 67.7163 20.8957 65.8349C21.2653 64.2551 20.3584 62.5245 20.6253 60.8007C20.9676 58.5766 20.8272 56.4896 20.8546 54.3272L20.9128 49.7146C20.9573 46.2671 21.1079 42.9909 20.9607 39.5606C20.8786 37.686 20.225 35.7635 20.7314 33.9095C20.9128 33.2481 21.2413 32.7889 20.7075 32.3674C20.7451 30.935 21.4124 29.2318 22.5588 28.1523C23.8661 26.9254 25.7449 26.8946 27.5415 26.8946L61.6876 26.8672C64.1789 26.8672 66.4238 27.7582 67.4197 30.1125C67.8303 31.0857 66.8653 33.7348 68.2307 33.7553H68.2273ZM23.8353 51.5206C23.5718 55.0674 27.2472 58.0043 30.7788 57.9838C34.3105 57.9632 38.198 55.2148 38.0611 51.5446C39.0672 48.4706 38.1364 45.0471 35.5322 43.0458C33.0032 41.0993 29.4237 40.9725 26.7373 42.775C24.0509 44.5776 22.9319 48.1587 23.8353 51.5206ZM50.374 51.8907C50.4561 54.8413 53.0877 57.0139 55.6578 57.7542C58.9978 58.7171 61.7492 57.1442 63.7682 54.7145C64.788 53.4842 64.4664 52.6652 64.7435 51.1642C65.339 47.9497 64.5382 44.8278 61.8621 42.9018C59.21 40.993 55.6304 41.1027 53.1391 42.9018C50.2576 44.982 49.3918 48.4158 50.374 51.8907Z" fill="#FFFFE3"/>
<path d="M20.8923 65.8349C21.5767 67.7197 23.6232 69.1899 25.9981 69.2001L62.6629 69.3784C64.7915 69.3886 67.0056 67.8979 67.1904 66.2016C67.3684 66.0919 68.2958 65.6396 68.2889 66.2221C68.2581 69.4846 65.6333 71.8286 62.3618 71.8183L25.5704 71.7052C21.5665 71.6915 20.4132 68.6141 20.3105 65.5779L20.8855 65.8349H20.8923Z" fill="#C3B88D"/>
<path d="M68.2271 33.7553C66.8617 33.7347 67.8267 31.0857 67.4161 30.1125C66.4202 27.7581 64.1753 26.8671 61.684 26.8671L27.5379 26.8946C25.7413 26.8946 23.8625 26.9254 22.5553 28.1522C21.4089 29.2283 20.7415 30.9315 20.7039 32.3674C20.0092 31.8191 20.5602 30.767 20.2761 29.9994C20.3993 27.2373 22.5724 24.9241 25.8268 24.9309L63.3643 25.0097C67.4777 25.0166 69.2538 30.109 68.2271 33.7587V33.7553Z" fill="#F4F4E4"/>
<path d="M68.5112 25.5546C68.4907 25.7123 68.3915 25.8802 68.2101 25.8356C66.8481 24.3449 64.9522 23.4368 62.7107 23.4368L25.4813 23.4299C23.2979 23.4299 21.6348 24.4991 20.3789 25.8871C20.2283 25.8151 20.0982 25.7054 20.0195 25.5581C20.5363 24.7527 20.9435 24.0091 21.9838 23.3854C23.8968 22.2408 26.1828 21.2881 28.6433 21.295L60.4829 21.3669C63.7989 21.3738 67.0123 22.981 68.5112 25.5581V25.5546Z" fill="white"/>
<path d="M15.54 42.6549L15.6324 56.7088C10.2871 57.2263 10.8483 50.0537 10.7251 46.7604C12.6928 47.5041 9.37678 40.8284 14.8385 39.1423C15.3416 40.6639 14.2328 43.1176 15.54 42.6584V42.6549Z" fill="#B3B383"/>
<path d="M73.723 32.4463C73.3877 31.5142 73.0181 30.5066 72.2858 30.7431C72.2378 30.0988 71.3994 28.9919 71.9093 28.3511C73.2474 26.665 70.7355 23.5774 69.1613 23.4746C69.1134 23.3683 68.956 23.2998 68.9218 23.1867C68.4153 21.4424 66.5331 19.9243 64.7639 20.4349C64.5928 20.4829 64.3156 20.4177 64.1342 20.3938C64.2129 20.1984 64.1103 19.8317 63.7407 19.7358C57.3652 18.0532 46.1988 18.8928 39.3477 18.8174L30.5699 18.7214C28.633 18.7008 20.0092 19.866 19.643 23.1901C19.5335 23.2792 19.4377 23.43 19.3076 23.4951C18.038 24.1154 16.6212 25.3594 15.8923 26.6513C16.3851 23.8687 18.4008 21.5041 20.9503 19.9825C23.6674 18.3616 26.7234 18.0018 29.9368 18.0189L61.1775 18.2005C69.3188 18.2485 73.9421 25.0133 73.7196 32.4463H73.723Z" fill="#C3B88D"/>
<path d="M19.0647 57.1819C19.0647 57.9735 17.6205 57.7473 17.2578 57.5314C16.895 57.3155 16.5494 56.7432 16.4981 55.9893C16.0806 49.9613 16.1558 44.0704 16.3988 38.0835C16.4296 37.3536 16.9121 36.891 17.2407 36.634C17.5692 36.3769 19.0784 36.3187 19.0784 36.8396L19.0647 57.1819Z" fill="#D1CDAF"/>
<path d="M71.9198 38.9197C72.3133 43.7106 72.5392 48.2684 72.1251 52.9187L71.824 56.3354C71.7658 57.0002 71.3209 57.4663 70.9753 57.6582C70.6296 57.8501 69.514 57.9872 69.4353 57.5348C69.3224 56.8803 68.9938 39.3961 69.4901 37.8402C70.5543 37.6243 71.6152 37.7683 71.9198 38.9197Z" fill="#D1CDAF"/>
<path d="M77.111 50.9928C76.3513 52.624 74.8113 53.8063 72.9805 53.6829L72.9976 39.2041C78.9042 39.7901 76.6045 46.8839 77.111 50.9962V50.9928Z" fill="#B3B383"/>
<path d="M64.1343 20.3936C62.8168 20.2257 61.5129 19.763 59.9832 19.763L29.2353 19.8007C25.4881 19.8042 22.3637 20.983 19.6431 23.19C20.0092 19.8659 28.633 18.7007 30.57 18.7213L39.3477 18.8172C46.1989 18.8926 57.3653 18.053 63.7407 19.7356C64.1103 19.835 64.213 20.2017 64.1343 20.3936Z" fill="#D1CDAF"/>
<path d="M20.7074 32.3673C21.2412 32.7888 20.9127 33.248 20.7313 33.9094C20.2214 35.7634 20.8785 37.6859 20.9606 39.5604C21.1078 42.9908 20.9538 46.2669 20.9127 49.7144L20.8545 54.3271C20.8271 56.4895 20.9675 58.5765 20.6252 60.8006C20.3583 62.5243 21.2652 64.2549 20.8956 65.8347L20.3207 65.5777C20.2043 61.9897 20.2625 58.4223 20.2625 54.6115V38.5769C20.2625 37.518 19.9887 36.603 20.0366 35.4789L20.2796 29.9993C20.5636 30.7669 20.0127 31.819 20.7074 32.3673Z" fill="#D7D28B"/>
<path d="M58.3373 66.4173C56.6878 66.8217 54.9426 66.7155 53.4505 66.3796C52.4923 66.1637 52.3828 65.1528 52.4718 64.4468C52.725 62.4763 55.1889 62.8019 57.4647 62.9081C58.3476 62.9493 59.0765 63.4188 59.2989 64.1178C59.5214 64.8169 59.4084 66.1569 58.3373 66.4173Z" fill="#D1CDAF"/>
<path d="M68.8296 64.8478C67.5463 65.1288 60.0278 66.3967 60.4043 64.7107C60.6096 63.7888 65.1679 64.906 69.4729 63.4427C72.0669 62.562 72.6076 60.4304 73.8499 57.6238C74.8799 61.0027 72.0532 64.1384 68.8262 64.8443L68.8296 64.8478Z" fill="#D1CDAF"/>
<path d="M15.8958 26.6513C16.6248 25.3594 18.0415 24.1188 19.3111 23.4951C18.9244 24.5575 18.0792 25.4073 17.5864 26.5759C15.7282 30.9864 16.2244 35.9109 15.4133 36.2262C13.5619 36.9424 14.7973 28.6013 15.8993 26.6513H15.8958Z" fill="#D1CDAF"/>
<path d="M72.9806 53.6829C74.8115 53.8062 76.3514 52.624 77.1111 50.9927C77.2207 51.0613 77.3233 51.051 77.4226 50.9722C77.2617 52.2847 77.4499 53.2785 76.8819 54.4368C76.1085 56.0166 74.5309 57.1612 72.7924 56.7123C72.4639 55.5368 72.9806 54.6013 72.9806 53.6829Z" fill="#C3B88D"/>
<path d="M15.54 42.655C14.2328 43.1142 15.3416 40.6605 14.8385 39.1389C9.37678 40.825 12.6962 47.5007 10.7251 46.757C10.7935 44.4713 10.7456 42.3157 11.4232 40.2801C12.0324 38.4536 13.8837 37.1033 15.6838 37.6482C15.2834 39.6153 15.5298 41.1163 15.54 42.6515V42.655Z" fill="#F4F4E4"/>
<path d="M46.8355 4.63659C45.6069 4.96215 44.6351 5.98338 43.0746 4.69142C42.4894 4.20822 42.2772 3.3652 42.1951 2.60784C43.0403 1.43583 44.3544 1.15482 45.3708 1.65173C46.6849 2.29257 46.9382 3.39947 46.8355 4.63659Z" fill="#B3B383"/>
<path d="M77.4225 50.9723C77.3233 51.0511 77.2206 51.0648 77.1111 50.9929C76.6046 46.8806 78.9043 39.7902 72.9977 39.2008C72.9703 38.5942 72.6281 37.7478 72.9806 37.5353C78.9967 36.9047 77.8263 47.6996 77.4225 50.9723Z" fill="#F4F4E4"/>
<path d="M45.5351 16.5726C44.7309 17.2203 43.8891 17.1106 43.1738 16.7576C43.4955 13.622 43.5263 10.9147 44.2586 7.77905C45.1997 10.7742 44.9088 13.4095 45.5351 16.5726Z" fill="#D7D28B"/>
<path d="M46.8353 4.63666C46.7121 6.11709 45.86 6.89843 44.7136 7.03551C43.4474 7.1863 42.3455 6.54546 41.863 5.51395C41.4215 4.56812 41.3462 3.28302 42.1949 2.60791C42.2771 3.36869 42.4858 4.20829 43.0744 4.69149C44.6349 5.98344 45.6102 4.96222 46.8353 4.63666Z" fill="#C3B88D"/>
<path d="M73.7232 32.4462C74.1202 33.5463 73.9422 34.8451 73.7403 36.0754C73.6753 36.466 72.6213 36.281 72.6281 35.8012C72.6555 33.9815 72.4057 32.3708 72.2825 30.743C73.0182 30.5066 73.3844 31.5107 73.7198 32.4462H73.7232Z" fill="#D1CDAF"/>
<path d="M69.9554 30.02L70.0684 29.0159C70.9615 30.6711 71.095 32.6998 71.0916 34.7697C71.0916 35.1604 70.0478 35.1809 70.0239 34.7937C69.9109 33.0665 69.7843 31.5278 69.9554 30.02Z" fill="white"/>
<path d="M18.6781 29.314C18.5652 31.0069 18.8321 35.0507 18.1477 35.037C17.9595 35.0336 17.3948 35.0987 17.4017 34.7629C17.4393 32.5628 17.8808 30.5991 18.2777 28.6321C18.5447 28.7212 18.6987 29.0433 18.6781 29.3175V29.314Z" fill="white"/>
<path d="M79.6983 46.6885C79.8865 48.6247 79.6504 50.2148 78.4595 51.637L78.5279 45.3657C79.0994 45.6639 79.0173 46.5514 79.7017 46.6885H79.6983Z" fill="#C3B88D"/>
<path d="M9.86606 47.0997C9.77024 47.0791 9.52043 47.11 9.24323 47.0997C9.12688 47.0962 8.91129 47.4252 9.2227 47.4355L9.79762 47.4526C10.0372 48.7172 10.0714 50.04 9.90028 51.5341C8.65463 50.0674 8.59987 48.1723 8.75387 46.4177C9.13715 46.4143 9.55123 46.4109 9.84895 46.1436L9.86606 47.1031V47.0997Z" fill="#C3B88D"/>
<path d="M51.8385 63.5183C51.4415 64.6047 51.4142 65.7698 52.3552 66.7396C54.3469 67.7026 56.6226 67.9836 58.6143 67.2468C59.4972 68.4874 53.5153 67.8842 53.2963 67.8294C52.3142 67.5895 51.5031 66.887 51.1609 66.1879C50.6715 65.1975 51.3731 64.0426 51.8385 63.5149V63.5183Z" fill="#F4F4E4"/>
<path d="M71.9059 28.3509C71.5706 28.2824 71.4268 27.926 71.3276 27.5216C70.9306 25.9109 69.7739 24.8417 69.158 23.4744C70.7321 23.5772 73.244 26.6648 71.9059 28.3509Z" fill="#D1CDAF"/>
<path d="M71.8992 59.1455C71.6426 60.1976 71.1908 61.0029 70.1266 61.8185C69.8288 61.1914 69.6543 60.2079 70.0752 59.543C70.3866 59.0496 71.3209 59.1901 71.8992 59.1455Z" fill="white"/>
<path d="M9.84899 46.1435C9.55126 46.4108 9.13719 46.4143 8.75391 46.4177C8.79497 45.9619 8.79497 45.5061 8.77786 45.0503C8.8771 44.951 9.02083 44.8379 9.05163 44.6905C9.21247 43.9709 9.47256 43.2786 9.98588 42.6069C10.2699 44.0223 9.82846 45.0435 9.84899 46.1435Z" fill="#F4F4E4"/>
<path d="M71.9196 38.9197C71.6184 37.7683 70.5541 37.6243 69.4899 37.8402C69.2503 37.2713 69.4419 36.9081 69.6849 36.7265C69.9861 36.5037 70.5062 36.4729 70.8621 36.586C72.0222 36.9492 71.8477 38.0561 71.9196 38.9197Z" fill="#C3B88D"/>
<path d="M68.9184 23.1866L64.7605 20.4348C66.5297 19.9242 68.4085 21.4423 68.9184 23.1866Z" fill="#D1CDAF"/>
<path d="M79.6981 46.6885C79.0137 46.5514 79.0993 45.6638 78.5243 45.3657C78.5688 44.4781 78.2574 43.8476 78.5312 42.9531C79.6879 43.9846 79.5681 45.3794 79.6981 46.6885Z" fill="#F4F4E4"/>
<path d="M70.0684 29.0193L69.9555 30.0234C69.3669 30.1365 69.8699 27.6554 68.2102 25.8391C68.3916 25.8871 68.4908 25.7192 68.5113 25.5581C69.4319 26.4217 70.065 27.7548 70.0718 29.0193H70.0684Z" fill="#F4F4E4"/>
<path d="M20.3788 25.8871C19.4822 26.8775 19.2837 28.1215 18.678 29.314C18.6951 29.0399 18.5411 28.7178 18.2776 28.6287C18.524 27.4052 19.3727 26.5656 20.0195 25.5547C20.0982 25.702 20.2282 25.8151 20.3788 25.8837V25.8871Z" fill="#F4F4E4"/>
<path d="M9.86618 47.0998C9.86618 47.2094 9.77378 47.3431 9.79432 47.4528L9.2194 47.4356C8.91141 47.4253 9.12358 47.0929 9.23993 47.0998C9.51712 47.1101 9.76694 47.0826 9.86276 47.0998H9.86618Z" fill="#F4F4E4"/>
<path d="M8.77435 45.0471C8.76751 44.91 8.84279 44.5262 9.04812 44.6872C9.0139 44.8346 8.87359 44.9477 8.77435 45.0471Z" fill="#C3B88D"/>
<path d="M38.0611 51.5444C36.9181 54.4984 34.0093 56.5614 30.8027 56.4586C27.7296 56.3592 24.8995 54.4059 23.8352 51.5204C22.9318 48.1586 23.9824 44.6254 26.7372 42.7749C29.492 40.9243 33.0031 41.0991 35.5321 43.0456C38.1329 45.0469 39.0637 48.4704 38.0611 51.5444ZM37.6093 48.9742C37.6093 45.3074 34.6389 42.3328 30.9704 42.3328C27.3019 42.3328 24.3314 45.3074 24.3314 48.9742C24.3314 52.641 27.3019 55.6156 30.9704 55.6156C34.6389 55.6156 37.6093 52.641 37.6093 48.9742Z" fill="#212118"/>
<path d="M64.7436 51.1641C63.6006 54.2209 60.9655 56.284 57.7556 56.4519C54.4532 56.6232 52.0098 54.639 50.374 51.8906C49.3918 48.4157 50.2576 44.9819 53.1391 42.9018C55.627 41.1026 59.2065 40.993 61.8621 42.9018C64.5382 44.8277 65.339 47.9496 64.7436 51.1641ZM64.107 48.9812C64.107 45.3075 61.1298 42.3295 57.4613 42.3295C53.7927 42.3295 50.8155 45.3075 50.8155 48.9812C50.8155 52.6548 53.7927 55.6328 57.4613 55.6328C61.1298 55.6328 64.107 52.6548 64.107 48.9812Z" fill="#212118"/>
<path d="M50.374 51.8906C52.0098 54.6424 54.4532 56.6232 57.7556 56.4518C60.9655 56.2873 63.6006 54.2209 64.7436 51.1641C64.4664 52.6651 64.7881 53.4841 63.7683 54.7144C61.7492 57.1441 58.9978 58.717 55.6578 57.7541C53.0878 57.0138 50.4562 54.8412 50.374 51.8906Z" fill="#C3B88D"/>
<path d="M38.0612 51.5445C38.1981 55.2147 34.3892 57.9631 30.7789 57.9837C27.1685 58.0043 23.5753 55.0708 23.8353 51.5205C24.8962 54.406 27.7263 56.3593 30.8028 56.4587C34.0128 56.5615 36.9216 54.5019 38.0612 51.5445Z" fill="#C3B88D"/>
<path d="M37.6094 48.9744C37.6094 52.6412 34.639 55.6158 30.9705 55.6158C27.302 55.6158 24.3315 52.6412 24.3315 48.9744C24.3315 45.3076 27.302 42.333 30.9705 42.333C34.639 42.333 37.6094 45.3076 37.6094 48.9744ZM34.355 48.9676C34.355 47.0827 32.8287 45.5578 30.9465 45.5578C29.0644 45.5578 27.5381 47.0827 27.5381 48.9676C27.5381 50.8524 29.0644 52.3774 30.9465 52.3774C32.8287 52.3774 34.355 50.8524 34.355 48.9676Z" fill="#F4F4E4"/>
<path d="M64.107 48.981C64.107 52.6547 61.1298 55.6327 57.4612 55.6327C53.7927 55.6327 50.8154 52.6547 50.8154 48.981C50.8154 45.3074 53.7927 42.3293 57.4612 42.3293C61.1298 42.3293 64.107 45.3074 64.107 48.981ZM60.8423 48.9742C60.8423 47.0962 59.3194 45.5712 57.4407 45.5712C55.5619 45.5712 54.0391 47.0962 54.0391 48.9742C54.0391 50.8521 55.5619 52.3771 57.4407 52.3771C59.3194 52.3771 60.8423 50.8521 60.8423 48.9742Z" fill="#F4F4E4"/>
<path d="M34.355 48.9674C34.355 50.8522 32.8287 52.3772 30.9465 52.3772C29.0644 52.3772 27.5381 50.8522 27.5381 48.9674C27.5381 47.0826 29.0644 45.5576 30.9465 45.5576C32.8287 45.5576 34.355 47.0826 34.355 48.9674ZM33.5337 48.964C33.5337 47.535 32.3736 46.3732 30.9465 46.3732C29.5195 46.3732 28.3594 47.5315 28.3594 48.964C28.3594 50.3965 29.5195 51.5548 30.9465 51.5548C32.3736 51.5548 33.5337 50.3965 33.5337 48.964Z" fill="#212118"/>
<path d="M60.8423 48.9742C60.8423 50.8522 59.3194 52.3772 57.4407 52.3772C55.5619 52.3772 54.0391 50.8522 54.0391 48.9742C54.0391 47.0963 55.5619 45.5713 57.4407 45.5713C59.3194 45.5713 60.8423 47.0963 60.8423 48.9742ZM60.0449 48.94C60.0449 47.5246 58.8985 46.3766 57.4817 46.3766C56.065 46.3766 54.9185 47.5246 54.9185 48.94C54.9185 50.3553 56.065 51.5033 57.4817 51.5033C58.8985 51.5033 60.0449 50.3553 60.0449 48.94Z" fill="#212118"/>
<path d="M30.9431 51.5548C32.3719 51.5548 33.5302 50.3949 33.5302 48.9641C33.5302 47.5332 32.3719 46.3733 30.9431 46.3733C29.5143 46.3733 28.356 47.5332 28.356 48.9641C28.356 50.3949 29.5143 51.5548 30.9431 51.5548Z" fill="#595959"/>
<path d="M57.4851 51.5034C58.9007 51.5034 60.0482 50.3558 60.0482 48.9401C60.0482 47.5244 58.9007 46.3767 57.4851 46.3767C56.0694 46.3767 54.9219 47.5244 54.9219 48.9401C54.9219 50.3558 56.0694 51.5034 57.4851 51.5034Z" fill="#595959"/>
<rect x="22.5264" y="80.144" width="43.9263" height="29.3485" rx="3" fill="#E5E5B1"/>
</g>
<defs>
<clipPath id="clip0_58_1409">
<rect width="107" height="149" fill="white"/>
</clipPath>
</defs>
</svg>
