<svg width="143" height="126" viewBox="0 0 143 126" fill="none" xmlns="http://www.w3.org/2000/svg">
<g clip-path="url(#clip0_58_1309)">
<path d="M95.9937 40.0152C96.4182 40.6737 96.7578 41.4441 96.8957 42.3743C97.8261 48.7259 98.0277 55.116 96.7295 61.3941C96.2024 63.9418 93.8995 65.6872 91.1933 66.0707C78.9677 67.8065 66.9048 67.7809 54.6792 66.1251C51.5697 65.7031 49.1324 63.9642 48.5947 61.0297C47.4202 54.6333 47.5865 48.2401 48.5699 41.9619C49.7196 41.6199 49.5639 40.0791 50.3139 39.3279C51.0143 38.8516 52.1003 39.8905 52.822 39.9544C56.2569 40.2517 59.6281 39.6859 63.0065 40.1814C64.1278 40.3444 64.991 40.7248 66.2645 40.7152L81.0937 40.6129C81.7517 40.6097 82.2116 40.1335 82.8589 40.0599C85.4236 39.7722 88.0484 40.3636 90.5459 39.8553C92.4703 39.4654 94.3841 38.8868 95.9972 40.0184L95.9937 40.0152ZM61.8249 48.7132C61.8249 47.0797 60.3604 45.7595 58.5527 45.7595C56.7451 45.7595 55.2806 47.0829 55.2806 48.7132C55.2806 50.3434 56.7451 51.6668 58.5527 51.6668C60.3604 51.6668 61.8249 50.3434 61.8249 48.7132ZM90.6025 48.6972C90.6025 47.0573 89.1309 45.7307 87.3162 45.7307C85.5014 45.7307 84.0298 47.0573 84.0298 48.6972C84.0298 50.337 85.5014 51.6636 87.3162 51.6636C89.1309 51.6636 90.6025 50.337 90.6025 48.6972ZM78.7307 55.9727C75.5398 59.1501 70.4494 59.0158 67.1878 56.0749C66.7987 55.7233 66.1654 55.5123 65.8011 55.816C65.4792 56.0845 65.2917 56.6791 65.7056 57.1106C69.6074 61.1576 76.2792 61.1256 80.1916 57.0947C80.5666 56.7079 80.3508 56.0334 80.0254 55.88C79.7813 55.7649 79.1198 55.5891 78.7307 55.9759V55.9727Z" fill="#FFCAC5"/>
<path d="M104.257 40.2676C104.965 47.4983 105.092 54.7738 104.402 62.0045C103.461 63.101 103.143 64.6002 102.213 65.8468C99.9699 68.8644 96.3227 70.0728 92.3713 70.4084L84.0193 71.1181C78.7307 71.5656 45.4463 72.2816 42.1529 67.1575L41.7815 66.3999C42.3475 66.0131 41.9796 65.4153 41.9513 64.7696C41.594 56.5415 41.9124 48.4605 42.6128 40.3922C43.9358 40.9804 47.7422 40.8526 47.2186 42.2463C46.4475 48.7386 46.1326 54.9368 47.4132 61.1926C48.0676 64.3828 50.6005 66.6716 54.1628 67.1798C66.452 68.9284 78.8015 68.9316 91.0837 67.2118C95.0987 66.6492 97.8261 63.9704 98.2683 60.4126C99.0112 54.4669 98.8379 48.6906 98.332 42.8952C97.3097 41.7412 103.518 40.3986 104.25 40.2708L104.257 40.2676Z" fill="#E88782"/>
<path d="M42.1528 67.1544C45.4498 72.2786 78.7306 71.5657 84.0192 71.115L92.3712 70.4053C96.3191 70.0697 99.9662 68.8582 102.213 65.8438C103.139 64.5971 103.458 63.0979 104.402 62.0015C104.155 64.5843 104.08 66.7356 102.439 68.8518C100.571 71.2588 97.8367 72.5854 94.4371 72.9115C79.9758 74.2988 65.6418 74.1773 51.1699 72.8859C47.0381 72.5183 43.7765 70.4501 42.1528 67.1544Z" fill="#B35956"/>
<path d="M111.123 56.0876C110.756 57.9928 108.739 59.1404 106.797 59.5144C106.896 53.981 106.942 48.7578 106.553 43.2117C108.446 43.4898 110.547 44.4807 110.996 46.2836C111.781 49.4387 111.771 52.7504 111.123 56.0876Z" fill="#B35956"/>
<path d="M38.5658 45.4463L38.679 59.5369C33.815 58.8529 33.5567 54.8475 33.6982 51.5007C34.6074 49.1032 34.6144 46.255 38.5658 45.4463Z" fill="#B35956"/>
<path d="M42.6128 40.3923C41.9124 48.4606 41.594 56.5416 41.9513 64.7697C41.9796 65.4154 42.3475 66.0132 41.7815 66.4C41.3676 65.9077 40.9749 65.1085 40.9254 64.3861C40.324 56.011 39.9278 47.6423 41.1341 39.4653C41.686 39.6987 42.2767 39.9129 42.6128 40.3923Z" fill="#D78F89"/>
<path d="M95.9937 40.0151C94.3806 38.8867 92.4633 39.4621 90.5424 39.8521C88.0485 40.3604 85.4201 39.769 82.8554 40.0567C82.2081 40.1302 81.7482 40.6033 81.0902 40.6097L66.261 40.712C64.991 40.7216 64.1243 40.3412 63.003 40.1782C59.6282 39.6827 56.2569 40.2485 52.8185 39.9512C52.0968 39.8873 51.0108 38.8484 50.3104 39.3247C49.5604 40.0759 49.7196 41.6166 48.5664 41.9587C48.7928 40.8143 49.2987 39.6411 50.2786 38.7621L60.693 39.574C69.2077 40.2357 77.7084 40.2868 86.1948 39.5484L93.3193 38.9283C93.8747 38.8803 94.6494 38.5031 95.1765 38.8676C95.5055 39.0945 95.7178 39.5964 95.9902 40.0151H95.9937Z" fill="#EEADA4"/>
<path d="M104.257 40.2676C103.525 40.3955 97.3131 41.738 98.339 42.892C98.1975 41.2777 97.4016 39.8936 96.6516 38.4903L103.875 37.1477C104.254 38.3752 104.165 39.3118 104.261 40.2644L104.257 40.2676Z" fill="#B35956"/>
<path d="M47.2222 42.2465C47.7458 40.8527 43.9394 40.9806 42.6164 40.3924C42.2803 39.9129 41.686 39.6988 41.1377 39.4654C41.1695 38.5192 41.0351 37.8287 41.5445 37.1606C43.8828 37.7488 46.1008 38.0173 48.6549 38.4808C48.1419 39.849 47.3743 40.9806 47.2257 42.2496L47.2222 42.2465Z" fill="#B35956"/>
<path d="M38.5658 45.4462C34.6145 46.255 34.6074 49.1032 33.6982 51.5006C33.8787 47.8789 33.2384 44.011 38.6366 43.2598C38.8524 44.1037 38.5623 44.7622 38.5658 45.4462Z" fill="#EEADA4"/>
<path d="M87.3161 51.6636C89.1311 51.6636 90.6025 50.3355 90.6025 48.6972C90.6025 47.0588 89.1311 45.7307 87.3161 45.7307C85.5011 45.7307 84.0298 47.0588 84.0298 48.6972C84.0298 50.3355 85.5011 51.6636 87.3161 51.6636Z" fill="#1A1313"/>
<path d="M58.5493 51.6669C60.3565 51.6669 61.8215 50.3445 61.8215 48.7132C61.8215 47.0819 60.3565 45.7595 58.5493 45.7595C56.7421 45.7595 55.2771 47.0819 55.2771 48.7132C55.2771 50.3445 56.7421 51.6669 58.5493 51.6669Z" fill="#1A1313"/>
<path d="M78.7307 55.9726C79.1163 55.5858 79.7814 55.7648 80.0255 55.8767C80.3509 56.0301 80.5667 56.7078 80.1917 57.0914C76.2828 61.1191 69.6075 61.1543 65.7056 57.1074C65.2882 56.6758 65.4757 56.0813 65.8012 55.8127C66.1655 55.5091 66.7952 55.72 67.1879 56.0717C70.4494 59.0125 75.5399 59.1468 78.7307 55.9694V55.9726Z" fill="#1A1313"/>
<path d="M82.1513 20.5765C82.3353 20.6947 82.4414 20.4582 82.5051 20.2408C83.4425 15.7464 83.913 11.3479 84.4224 6.6872C87.6168 9.07507 89.5341 11.7666 91.6106 14.5349C93.0398 16.6894 98.056 28.9228 93.8039 29.2457C86.8951 28.0565 79.859 28.2419 72.593 28.1748C62.4545 28.0821 52.7299 29.0251 42.9558 30.4923C44.5654 20.6596 50.2042 11.6611 61.5383 8.53484C62.0053 10.8748 61.8461 12.7703 62.1043 14.8194C62.4864 17.8274 62.9745 20.7139 62.6314 23.7699C62.5713 24.3005 62.9392 24.4795 63.1373 24.7001C63.4061 25.0006 63.6785 25.8509 64.485 25.6463C64.8246 24.3772 64.952 23.0347 64.9555 21.8839C65.1819 21.8487 66.413 21.8327 66.4342 21.3852L67.124 6.4059C67.3221 2.10646 75.2567 4.19704 78.9959 2.75537C79.9262 3.07503 80.2552 4.30253 80.2658 5.25832L80.4675 24.9974C80.471 25.4992 80.9026 25.7294 81.1608 25.6591C82.2893 25.3554 82.1478 21.7912 82.1584 20.5765H82.1513Z" fill="#E88782"/>
<path d="M93.0965 31.0678C92.9691 31.3331 92.5835 31.3043 92.3394 31.5345C93.5563 32.1738 94.8157 32.0939 95.8274 32.8259C96.4394 33.267 95.6859 34.2164 95.1341 34.5201C92.1838 36.1408 88.8833 36.7705 85.4625 37.2596C85.0522 37.3171 84.5923 37.5217 84.5817 37.7934C78.5114 38.3465 72.7523 38.0779 67.0003 37.9948C66.689 37.3203 65.8188 36.924 64.846 36.8504C58.2132 36.3486 51.7784 35.8115 45.3437 34.3891C44.3603 34.1717 43.4547 33.9319 43.055 33.2319C43.8226 32.8003 43.5254 32.6405 42.9241 32.6309C44.944 31.8222 47.07 31.9436 49.143 31.5217C53.4234 30.649 57.5835 30.5371 61.924 30.243C70.8633 29.6389 84.6065 29.8786 93.1 31.0678H93.0965Z" fill="#E88782"/>
<path d="M93.8039 29.2458C98.056 28.923 93.0398 16.6895 91.6107 14.535C89.5341 11.7668 87.6168 9.07841 84.4224 6.68735C83.913 11.3448 83.4426 15.7433 82.5051 20.241C82.4379 20.4583 82.3353 20.6949 82.1514 20.5766L82.2752 5.57812C97.0266 9.05284 103.666 18.5564 105.113 31.1957L93.8039 29.249V29.2458Z" fill="#B35956"/>
<path d="M63.1374 24.7001C62.9393 24.4796 62.5714 24.3005 62.6315 23.7699C62.9747 20.7139 62.4865 17.8274 62.1044 14.8194C61.8462 12.7736 62.0054 10.8748 61.5384 8.53486C50.2043 11.658 44.5655 20.6596 42.9559 30.4924C42.0503 30.6298 41.2968 31.3459 40.0623 31.0422C41.9265 17.8594 48.34 9.1614 63.0206 5.52686L63.1374 24.6969V24.7001Z" fill="#D78F89"/>
<path d="M78.9925 2.75227C75.2569 4.19714 67.3187 2.10336 67.1206 6.4028L66.4308 21.3821C66.4096 21.8296 65.175 21.8488 64.9521 21.8808L64.9804 4.8013C64.9804 3.42995 65.9037 2.62121 67.2798 2.33032C71.2666 1.49601 75.2958 1.48002 78.989 2.74908L78.9925 2.75227Z" fill="#D78F89"/>
<path d="M84.5815 37.7935C84.5886 37.5186 85.052 37.3172 85.4624 37.2597C88.8867 36.7706 92.1836 36.1409 95.1339 34.5202C95.6858 34.2165 96.4393 33.2671 95.8273 32.826C94.8155 32.094 93.5597 32.1739 92.3393 31.5346C92.5834 31.3076 92.969 31.3332 93.0963 31.0679C97.9073 31.7424 102.439 32.0908 106.885 33.5548C107.179 33.6507 107.575 33.8585 107.381 33.9768C107.222 34.0727 107.091 34.2773 106.871 34.3476C100.518 36.4542 93.9488 37.314 87.1781 37.6177C86.2371 37.6593 85.3633 37.7232 84.5815 37.7935Z" fill="#B35956"/>
<path d="M42.9205 32.6277C43.5219 32.6373 43.8225 32.7972 43.0514 33.2287C43.4511 33.9288 44.3567 34.1685 45.3401 34.3859C51.7784 35.8084 58.2131 36.3454 64.8424 36.8473C65.8152 36.9208 66.6854 37.3172 66.9967 37.9917C58.6518 37.867 44.8343 37.2373 37.5789 33.9192C39.337 33.1072 41.1093 32.6214 42.9169 32.6277H42.9205Z" fill="#D78F89"/>
<path d="M112.132 129.658C111.76 131.09 111.629 133.302 110.43 134.079C105.81 136.386 96.892 132.474 95.2754 127.673C100.362 118.962 105.732 110.574 109.804 101.409L117.081 85.033C117.3 85.3814 117.919 86.334 118.322 85.8513C118.552 85.4102 118.842 85.0202 119.054 84.7229C119.09 85.343 118.853 85.8673 118.534 86.6217C113.051 99.6191 106.815 112.172 100.072 124.69C103.567 127.759 107.763 129.146 112.132 129.658Z" fill="#587599"/>
<path d="M115.56 102.237C114.077 105.044 113.508 108.237 114.969 110.878C113.646 112.268 114.94 112.69 112.11 112.978C111.845 113.502 112.584 113.349 112.988 113.681C113.515 114.119 112.74 115.647 112.036 115.58C111.332 115.513 110.749 114.784 110.105 115.404C112.022 116.842 114.311 117.201 116.423 117.853C115.973 119.352 114.916 122.587 114.198 124C113.051 124.064 111.923 123.862 110.692 123.306C110.349 123.37 110.2 123.699 110.296 124.019C111.555 124.386 112.691 124.697 113.865 124.888C113.78 125.374 113.617 125.879 113.515 126.193C112.478 126.193 111.502 125.393 110.345 125.982C111.162 126.774 112.174 126.768 112.945 127.088C113.101 127.88 112.715 128.369 112.489 128.785C108.41 128.593 104.469 127.072 101.204 124.521L113.108 101.09C114.198 101.598 114.721 102.157 115.556 102.24L115.56 102.237Z" fill="#587599"/>
<path d="M135.748 82.8721C133.795 86.1998 131.885 89.3964 129.738 92.43C127.361 92.5802 125.09 91.6756 122.744 90.9371C121.365 93.4529 120.261 95.9079 119.277 98.3597C117.82 99.2196 116.914 100.543 115.705 101.649L113.285 100.693C116.642 93.4433 119.861 86.1838 122.67 78.5183C126.788 81.114 131.114 82.773 135.748 82.8721Z" fill="#587599"/>
<path d="M128.089 105.782C126.972 106.102 125.542 108.944 124.096 109.35C120.859 110.257 118.135 108.336 116.391 106.115C116.656 103.819 117.809 101.774 119.624 100.396C121.439 99.0181 123.547 99.3058 125.514 100.022C128.291 101.032 129.126 103.388 128.093 105.782H128.089Z" fill="#E88782"/>
<path d="M122.723 77.6458C125.454 79.2664 128.312 80.7177 131.627 81.5392C133.197 81.9292 134.811 81.7054 136.102 82.332C135.865 82.5749 135.805 82.7731 135.748 82.8722C131.114 82.7731 126.787 81.1141 122.67 78.5184C119.861 86.1839 116.642 93.4434 113.285 100.693L115.704 101.649C115.613 101.962 115.62 102.129 115.559 102.24C114.725 102.157 114.201 101.598 113.111 101.09L101.208 124.521C104.473 127.069 108.414 128.593 112.492 128.785C112.287 129.166 112.372 129.527 112.132 129.664C107.763 129.156 103.567 127.765 100.072 124.697C106.811 112.179 113.051 99.6288 118.534 86.6282C118.853 85.8738 119.09 85.3496 119.054 84.7294C120.675 82.479 121.527 77.6585 122.726 77.6521L122.723 77.6458Z" fill="white"/>
<path d="M125.528 73.733C127.092 74.8646 128.917 75.3441 130.399 76.2519C132.511 77.5401 136.194 77.4251 139.218 77.684C138.093 79.4197 137.375 81.0276 136.098 82.3319C134.807 81.7053 133.194 81.9291 131.623 81.5391C128.308 80.7176 125.454 79.2663 122.719 77.6456C123.314 76.2008 123.526 73.3142 125.524 73.733H125.528Z" fill="#587599"/>
<path d="M137.428 73.9376C138.889 71.0383 133.134 68.5673 129.879 68.3531C127.184 68.1773 127.23 70.303 126.183 71.8278C125.079 71.0159 124 70.124 123.392 68.8454C123.031 68.091 123.448 67.2183 124.336 66.985C132.518 64.8304 143.237 73.0649 140.736 75.3153C139.678 76.2679 137.955 75.961 136.717 75.8332C136.809 75.0148 137.124 74.5481 137.432 73.9376H137.428Z" fill="#587599"/>
<path d="M125.528 73.733C123.533 73.3143 123.321 76.2008 122.723 77.6457C121.524 77.652 120.671 82.4725 119.051 84.723C118.839 85.0202 118.549 85.4102 118.319 85.8514C117.916 86.334 117.296 85.3847 117.077 85.033L122.27 70.6707C123.558 71.7319 124.382 72.9051 125.525 73.733H125.528Z" fill="#9CA4A8"/>
<path d="M129.115 93.3442C129.214 94.511 127.866 95.3773 127.322 96.1221C126.94 96.6495 127.322 98.4492 125.974 98.2318C124.12 97.9345 122.284 97.3911 120.441 97.746L123.183 91.9761C125.245 92.6474 127.134 93.162 129.108 93.3442H129.115Z" fill="#587599"/>
<path d="M116.387 106.115C118.131 108.336 120.859 110.257 124.092 109.35C125.539 108.944 126.972 106.102 128.086 105.782C127.75 108.113 126.328 110.021 124.517 111.472C122.705 112.923 120.646 112.661 118.74 111.635C116.532 110.446 115.234 108.18 116.384 106.115H116.387Z" fill="#B35956"/>
<path d="M116.723 116.932C115.655 116.772 114.548 116.612 113.338 116.027L115.354 111.527L118.198 113.416C117.792 114.755 117.385 115.893 116.727 116.929L116.723 116.932Z" fill="#587599"/>
<path d="M129.738 92.4269C129.462 92.8169 129.547 93.2484 129.115 93.3443C127.141 93.1621 125.249 92.6474 123.19 91.9762L120.448 97.746C120.109 98.184 119.536 98.2095 119.277 98.3598C120.261 95.908 121.364 93.453 122.744 90.9373C125.089 91.6725 127.364 92.5803 129.738 92.4301V92.4269Z" fill="white"/>
<path d="M135.437 74.2318C136.799 77.6873 128.263 73.5349 127.46 72.8828C127.343 72.4289 127.725 71.6777 128.16 71.374C130.226 73.0682 132.734 73.8322 135.44 74.235L135.437 74.2318Z" fill="#587599"/>
<path d="M115.351 111.53L113.334 116.031C114.548 116.616 115.652 116.775 116.72 116.935C116.511 117.261 116.476 117.67 116.423 117.853C114.311 117.201 112.022 116.843 110.105 115.404C110.745 114.784 111.318 115.513 112.036 115.58C112.754 115.647 113.515 114.122 112.988 113.681C112.588 113.345 111.849 113.502 112.111 112.978C114.941 112.693 113.646 112.268 114.969 110.878C115.149 111.201 115.294 111.351 115.351 111.53Z" fill="white"/>
<path d="M136.371 72.6525C133.65 73.3909 130.774 71.9428 128.797 69.8842C131.535 69.1745 134.422 70.4596 136.371 72.6525Z" fill="#587599"/>
<path d="M114.201 123.996C114.088 124.217 113.911 124.712 113.869 124.885C112.694 124.693 111.559 124.383 110.299 124.016C110.204 123.699 110.352 123.37 110.695 123.303C111.923 123.859 113.055 124.06 114.201 123.996Z" fill="white"/>
<path d="M113.518 126.189C113.356 126.682 113.246 126.95 112.949 127.085C112.181 126.765 111.166 126.774 110.349 125.978C111.505 125.39 112.482 126.193 113.518 126.189Z" fill="white"/>
<path d="M48.0606 112.61C48.34 111.194 44.608 111.868 44.1941 107.703C43.9641 105.386 45.7647 102.924 47.2257 103.234C48.432 103.49 48.05 107.109 49.6135 106.655C51.1771 106.201 49.3553 104.203 49.2669 102.637C49.9142 102.208 50.4838 102.228 51.308 101.94C51.1205 100.463 51.7396 98.708 51.216 97.2919C50.2821 96.5727 48.5523 96.2403 47.4769 95.2429C44.3957 97.3239 41.4384 98.5578 37.4304 99.0885C40.3453 100.405 42.16 102.502 42.8463 104.785C44.1375 109.068 41.6117 113.403 39.9208 113.333C39.514 113.317 39.1072 113.061 38.8737 112.629L36.2807 107.857C35.8951 107.147 33.8646 107.24 33.1606 107.563C32.4566 107.886 31.4555 109.001 31.6359 109.839C32.0286 111.648 33.2667 113.067 33.9106 114.787C34.9683 117.626 27.2777 116.555 24.3345 112.166C22.3642 109.228 22.442 105.852 24.2992 102.924L21.9715 98.3756C19.1132 99.4305 16.1841 98.983 14.1713 96.8924C10.6055 93.1907 7.93115 86.1933 13.7751 82.8657C13.0358 81.229 12.4415 79.8992 11.5111 78.4575C6.86282 78.237 2.97157 75.734 1.19574 72.3392C-2.50449 65.2555 3.45621 57.7179 4.89243 60.5917L8.41932 67.6338C9.82725 67.6594 11.4616 68.1485 12.728 67.621C13.8635 67.1447 14.4189 65.7862 15.1689 64.8592L11.6667 57.7691C10.1598 54.7163 19.9763 55.557 23.6978 62.0717C25.9087 65.9428 25.3498 70.3829 22.587 73.864L24.9713 79.0105C27.4263 78.3872 29.4958 79.3686 30.5216 81.0372C33.2667 85.5156 26.7613 86.3276 30.2492 88.0825C34.0698 90.0069 41.3004 89.3995 43.3805 85.2663C45.8921 80.2796 50.8269 77.3323 57.0635 79.1192C59.798 77.0318 62.7341 77.8342 62.9287 76.2391C63.0207 75.4943 62.4865 75.3632 61.6304 75.3025C57.1767 74.9828 52.8185 75.1011 48.432 74.2252C42.5315 73.0489 38.8843 68.0174 38.9904 62.6695C39.0081 61.7552 38.7251 61.3301 37.77 61.1511C34.374 60.515 32.11 58.1495 31.9189 55.0232C31.7668 52.5458 31.7633 50.1324 31.9331 47.671C32.1772 44.1579 34.8975 41.818 38.8065 41.4536L39.5175 36.7418C38.3537 36.1792 34.9824 35.2042 35.4034 33.5995C35.8668 31.835 37.9539 32.8707 38.2122 30.5691C38.6013 27.1168 39.5883 23.8339 40.9254 20.6021C42.9206 15.772 46.2317 11.8881 50.7172 8.78423C54.4387 6.20777 58.7014 5.06338 62.9959 3.40754C65.1219 -0.802397 74.6626 -0.306922 78.6777 0.687223C80.3827 1.10918 81.3272 2.16406 82.0206 3.59933C97.5502 7.38092 104.827 16.0309 107.02 30.2559C107.459 33.104 109.121 31.7711 109.772 33.3502C110.529 35.1914 107.038 35.9906 106.026 36.7162C105.633 38.1643 106.344 39.884 106.394 41.4248C110.367 41.8244 113.08 44.1196 113.292 47.639C113.448 50.1931 113.48 52.7472 113.267 55.3077C112.995 58.6258 110.384 60.6812 106.882 61.3685C106.284 61.6977 106.352 63.117 106.309 63.7212C105.892 69.5869 101.261 74.0494 94.7945 74.6152L87.3127 75.2705C86.9342 75.5262 86.9271 76.709 87.3127 77.0223C89.1805 77.0862 91.4091 78.5247 93.0894 78.9402C96.5279 78.5023 99.5525 78.4479 102.51 80.3915C104.94 81.9866 105.909 84.5631 106.638 87.5423C107.169 89.7096 109.733 91.2663 111.286 93.1587C113.136 90.1315 114.031 87.1235 115.266 83.9109L121.899 66.6237C123.034 63.6668 135.568 63.9194 142.183 72.1954C142.982 73.1927 143.322 74.7942 142.653 75.8427C137.676 83.6648 132.617 91.196 128.086 99.3026C133.077 102.908 129.278 110.743 124.736 113.505C123.36 114.339 121.697 113.985 120.148 114.138C119.101 116.19 118.407 118.223 117.654 120.324L112.478 134.791C111.591 137.272 99.1456 137.892 93.9774 129.29C93.705 128.836 93.7863 128.341 93.2769 128.385C92.8913 128.417 92.2723 128.74 92.3147 129.396L93.3335 145.34C96.7118 146.648 99.8284 149.048 100.168 152.644C100.278 153.789 99.8567 154.447 98.5407 154.649C93.0824 155.486 87.6488 155.151 82.1196 154.559C81.3662 154.479 80.641 154.294 80.2625 153.872C79.8627 153.421 79.7707 152.721 79.7743 152.008L79.8556 130.128L70.17 130.019L70.2336 152.635C70.2336 153.386 69.795 154.275 68.9495 154.403C63.0348 155.285 57.1732 155.451 51.2691 154.626C50.3564 154.498 49.801 153.84 49.847 153.018C50.0593 149.25 53.0697 146.501 56.9751 145.356L57.4456 132.749C52.8857 131.988 46.1397 131.95 45.4216 126.483C44.99 123.191 44.9051 119.921 45.0961 116.599C45.273 113.492 47.7917 114.026 48.0712 112.616L48.0606 112.61ZM64.9521 21.8839C64.9521 23.0315 64.8213 24.3741 64.4817 25.6463C63.6716 25.8541 63.4027 25.0006 63.1339 24.7002L63.0171 5.53009C48.333 9.16463 41.9195 17.8626 40.0587 31.0454C41.2933 31.3459 42.0468 30.6299 42.9524 30.4956C52.7301 29.0284 62.4547 28.0854 72.5896 28.1781C79.8556 28.2452 86.8917 28.0598 93.8005 29.2489L105.11 31.1957C103.663 18.5563 97.0231 9.05275 82.2718 5.57804L82.1479 20.5765C82.1373 21.7912 82.2788 25.3523 81.1504 25.6591C80.8921 25.7295 80.4641 25.4993 80.457 24.9974L80.2554 5.25837C80.2448 4.30259 79.9193 3.07509 78.9854 2.75543C75.2958 1.48638 71.2666 1.49916 67.2763 2.33667C65.8967 2.62437 64.9769 3.43631 64.9769 4.80765L64.9486 21.8871L64.9521 21.8839ZM42.9206 32.6277C41.1129 32.6245 39.3406 33.1104 37.5825 33.9192C44.8379 37.2373 58.6554 37.867 67.0004 37.9917C72.7559 38.078 78.5114 38.3465 84.5817 37.7903C85.3635 37.7199 86.2373 37.656 87.1783 37.6145C93.9491 37.3108 100.515 36.4509 106.872 34.3443C107.091 34.2708 107.222 34.0694 107.381 33.9735C107.576 33.852 107.179 33.6475 106.886 33.5516C102.439 32.0907 97.9111 31.7391 93.0965 31.0646C84.603 29.8755 70.8598 29.6357 61.9205 30.2399C57.5764 30.534 53.4199 30.6458 49.1395 31.5185C47.0665 31.9405 44.9405 31.8158 42.9206 32.6277ZM41.1341 39.4653C39.9279 47.6454 40.3241 56.0109 40.9254 64.3861C40.9785 65.1085 41.3676 65.9044 41.7815 66.3999L42.1529 67.1575C43.7802 70.4532 47.0418 72.5214 51.17 72.889C65.6384 74.1805 79.9724 74.3019 94.4372 72.9146C97.8332 72.5886 100.568 71.2652 102.439 68.8549C104.08 66.7388 104.158 64.5842 104.402 62.0046C105.092 54.7739 104.968 47.4984 104.257 40.2676C104.165 39.3151 104.25 38.3784 103.872 37.1509L96.6482 38.4935C97.3981 39.8968 98.1976 41.281 98.3356 42.8953C98.8414 48.6907 99.0147 54.467 98.2719 60.4127C97.8297 63.9705 95.0987 66.6493 91.0872 67.2119C78.805 68.9348 66.4556 68.9316 54.1663 67.1799C50.604 66.6716 48.0676 64.3829 47.4167 61.1926C46.1362 54.9369 46.451 48.7419 47.2222 42.2463C47.3743 40.9805 48.1419 39.8457 48.6513 38.4775C46.0937 38.0108 43.8792 37.7455 41.541 37.1573C41.0316 37.8254 41.166 38.5159 41.1341 39.4621V39.4653ZM48.5664 41.9618C47.5795 48.2432 47.4167 54.6332 48.5912 61.0296C49.1289 63.9641 51.5662 65.7031 54.6757 66.125C66.8978 67.7809 78.9642 67.8064 91.1898 66.0707C93.896 65.6871 96.1989 63.9417 96.726 61.394C98.0243 55.1159 97.8226 48.7259 96.8923 42.3742C96.7543 41.4408 96.4182 40.6704 95.9902 40.0151C95.7213 39.5995 95.5055 39.0945 95.1766 38.8675C94.6495 38.5031 93.8748 38.8803 93.3194 38.9283L86.1948 39.5484C77.7084 40.2868 69.2113 40.2389 60.693 39.574L50.2786 38.762C49.2987 39.6379 48.7893 40.8111 48.5664 41.9586V41.9618ZM33.6983 51.5005C33.5568 54.8506 33.815 58.8527 38.6791 59.5368L38.5659 45.4461C38.5588 44.7621 38.8525 44.1036 38.6367 43.2597C33.242 44.0109 33.8787 47.8788 33.6983 51.5005ZM111.124 56.0877C111.771 52.7504 111.782 49.4387 110.996 46.2837C110.547 44.4808 108.449 43.4898 106.553 43.2117C106.942 48.7578 106.896 53.9779 106.797 59.5144C108.739 59.1404 110.756 57.996 111.124 56.0877ZM16.025 82.0953C16.1665 82.1272 16.3256 82.1049 16.5273 82.1113C16.6829 82.1176 16.8386 82.1017 16.7678 81.8715C16.8669 81.8587 16.9872 81.8843 17.0862 81.8811L18.1616 81.8587L22.0069 83.0351C22.0458 83.2908 21.9255 83.6584 22.3712 83.7447C22.6047 82.8465 22.5446 82.156 22.5375 81.4336C24.6635 79.8608 21.8972 78.1187 20.7687 74.4202C20.1603 72.4319 25.647 69.4399 21.9467 62.7718C20.5565 60.2656 17.5708 58.1495 13.9378 57.865C14.7408 60.3967 16.5768 62.3147 17.0614 64.9487C16.545 66.2657 15.2432 68.3722 13.6902 69.1746C12.2858 69.897 8.69878 69.8778 7.48542 68.8965C5.36292 67.1799 5.13652 64.5459 3.52342 62.3434C1.64147 65.1596 1.29125 68.6407 3.12368 71.8565C6.36403 77.5305 12.4025 76.1815 13.2126 77.6648L15.3068 81.5071C15.4873 81.8363 15.749 82.0313 16.032 82.0921L16.025 82.0953ZM137.428 73.9375C137.121 74.5513 136.806 75.0148 136.714 75.8331C137.952 75.961 139.675 76.2679 140.733 75.3153C143.234 73.0649 132.515 64.8336 124.333 66.9849C123.445 67.2183 123.027 68.0909 123.388 68.8453C123.997 70.124 125.076 71.0126 126.179 71.8278C127.226 70.303 127.18 68.1772 129.876 68.353C133.134 68.5672 138.886 71.035 137.425 73.9375H137.428ZM136.371 72.6525C134.422 70.4596 131.535 69.1746 128.797 69.8842C130.774 71.946 133.65 73.3909 136.371 72.6525ZM117.077 85.033L109.801 101.409C105.729 110.574 100.359 118.959 95.2721 127.673C96.8887 132.474 105.807 136.386 110.427 134.079C111.626 133.302 111.757 131.09 112.128 129.658C112.369 129.52 112.284 129.159 112.489 128.779C112.715 128.363 113.101 127.874 112.945 127.081C113.243 126.947 113.352 126.678 113.515 126.186C113.618 125.876 113.78 125.371 113.865 124.882C113.908 124.709 114.085 124.214 114.198 123.993C114.912 122.584 115.974 119.345 116.423 117.846C116.476 117.664 116.515 117.255 116.72 116.929C117.378 115.893 117.785 114.755 118.192 113.416L115.347 111.526C115.294 111.347 115.146 111.2 114.965 110.874C113.504 108.234 114.074 105.041 115.556 102.234C115.616 102.122 115.609 101.956 115.701 101.643C116.911 100.54 117.817 99.2131 119.274 98.3532C119.529 98.203 120.105 98.1774 120.445 97.7395C122.288 97.3847 124.124 97.9313 125.978 98.2254C127.322 98.4395 126.94 96.6398 127.325 96.1156C127.867 95.3708 129.214 94.5077 129.119 93.3377C129.55 93.245 129.466 92.8135 129.742 92.4203C131.885 89.3867 133.795 86.1901 135.752 82.8625C135.812 82.7634 135.868 82.5652 136.105 82.3222C137.383 81.018 138.097 79.4101 139.226 77.6744C136.201 77.4154 132.518 77.5337 130.407 76.2423C128.924 75.3376 127.099 74.855 125.535 73.7234C124.389 72.8954 123.569 71.7223 122.281 70.661L117.088 85.0234L117.077 85.033ZM135.437 74.2316C132.731 73.8288 130.223 73.068 128.157 71.3706C127.725 71.6775 127.34 72.4287 127.456 72.8794C128.259 73.5316 136.799 77.684 135.433 74.2284L135.437 74.2316ZM83.3896 78.8923C84.3447 78.6397 85.0345 78.0004 85.1159 77.4506C85.2079 76.8273 85.4378 75.5902 84.6843 75.4367C83.5346 75.2034 82.4805 75.5934 81.4051 75.603L65.1361 75.7692C64.51 75.7756 64.7222 77.473 65.0866 77.8757C65.4085 78.2306 66.0488 78.6014 66.8447 78.8347C72.197 80.4234 77.9985 80.3148 83.3896 78.8891V78.8923ZM55.5707 105.744C55.8006 106.843 55.1391 108.493 56.5187 108.669C57.8984 108.845 57.4173 107.233 58.1778 106.597C59.0976 105.827 60.4631 106.604 61.7295 106.326C62.1787 104.27 60.2437 95.9398 64.1067 96.2307C71.2418 96.7645 78.1753 96.8412 85.3175 96.2339C86.6689 96.1188 87.8964 96.9595 87.9247 98.2254L88.1617 109.519C89.2619 109.628 90.1604 109.468 91.2959 109.27C93.0399 108.969 94.7273 108.972 96.6942 108.231C96.5491 100.626 96.443 93.3122 95.5091 85.7298C95.081 82.2615 91.1332 78.9242 87.1535 78.9754C81.3697 82.5844 70.7607 82.5044 64.0784 79.7649C63.6645 78.8283 62.5219 78.7197 61.3934 79.0521C58.0151 80.0399 54.9976 82.1848 54.4599 85.5029C53.526 91.2823 53.3315 96.9627 53.0874 102.8C54.4811 103.592 54.8773 104.708 55.5672 105.744H55.5707ZM45.457 86.8199C44.8414 90.3937 47.4733 93.9291 51.4177 95.3164C52.4329 90.1188 51.545 86.5162 53.9293 81.8108C54.1734 81.4496 54.8879 81.213 54.8738 80.4906C50.3246 79.6659 45.8673 82.53 45.4534 86.8199H45.457ZM28.0418 85.0681C29.3472 84.4576 29.3719 82.8848 28.8732 81.9163C28.3744 80.9477 27.0549 80.1997 25.7495 80.7271C24.2921 81.3153 23.9985 82.8081 24.6458 83.8214C25.2932 84.8348 26.5702 85.7554 28.0418 85.0681ZM98.424 95.2557C102.549 93.8748 104.954 90.3329 104.385 86.6728C103.73 82.4693 99.6197 79.5348 94.9891 80.644C98.7848 84.969 97.4335 90.2882 98.424 95.2557ZM12.4591 89.4635C12.4591 91.2088 13.439 92.7208 14.617 94.2775C15.3988 95.3101 16.025 96.5663 17.7406 97.0266C19.7499 97.5669 21.9361 96.6239 23.1742 95.3676C24.66 93.8588 24.515 91.7586 23.8393 90.0708C22.5623 86.8934 23.1813 86.7335 20.2381 84.627C18.5967 83.4538 16.6582 83.5018 14.6453 84.5535C12.8589 85.4869 11.9922 87.3569 12.4591 89.4667V89.4635ZM24.9147 86.9701C25.0951 87.5007 25.3498 88.0218 25.6505 88.5077L26.3438 92.0687C26.5738 93.245 25.8451 94.5109 25.417 95.6201C25.3215 95.8695 24.9218 96.2179 24.805 96.4672C24.522 96.6942 24.0445 96.8221 23.9419 97.1193C23.8075 97.5221 23.8464 97.8098 24.0409 98.1934L26.0361 102.183C26.9381 103.982 22.9514 106.147 25.7885 110.983C26.779 112.671 29.0571 114.359 31.6324 114.506C31.1513 112.658 29.4851 111.373 29.5064 109.5C29.5205 108.266 31.1796 106.396 32.4531 105.904C33.7266 105.411 36.1463 105.504 37.1438 106.166C38.8489 107.297 38.9374 109.359 40.133 110.961C41.6683 108.752 41.7284 106.258 40.3665 103.845C39.3831 102.103 37.2217 100.562 34.5685 100.185C33.7443 100.07 33.2314 99.4752 32.9024 98.8135L27.7093 88.2903C27.1999 87.2578 26.4111 86.5929 25.2755 86.8774C25.4064 86.6696 25.2083 86.6345 25.0562 86.5929C24.8546 86.5386 24.614 86.5641 24.5433 86.7591C24.4902 86.9094 24.7414 87.0788 24.9112 86.9669L24.9147 86.9701ZM37.8337 97.1993C41.3039 96.7741 43.6847 95.716 45.9734 93.9867C44.3993 92.2157 43.8262 90.448 43.1611 88.5109C41.0422 89.6904 39.0718 90.3617 36.7866 90.9531C37.9044 93.0852 37.8478 95.0703 37.8372 97.1993H37.8337ZM36.6132 97.1193C36.9564 95.3996 37.3101 92.4842 35.6758 91.2599C34.4376 90.5855 32.4107 91.0713 30.8365 90.3106L34.2749 97.1673C34.7277 97.5061 36.3833 97.602 36.6168 97.1193H36.6132ZM105.446 99.7438C106.826 97.4486 108.17 95.9238 110.441 94.8146C108.884 93.2898 107.519 92.1358 106.146 90.2914C105.301 92.6824 103.621 94.1209 101.742 95.8151C102.92 97.2888 104.095 98.5418 105.446 99.747V99.7438ZM107.558 101.483C108.463 99.5456 109.496 98.1103 109.999 96.1156C108.251 97.049 107.101 98.4587 106.359 100.124C106.09 100.728 106.946 101.332 107.558 101.483ZM99.7682 114.678C99.2058 115.215 99.4711 116.078 98.9511 116.772C98.6327 117.2 98.1198 117.594 98.5266 118.227C99.5029 117.434 99.6657 116.264 100.214 115.318C102.474 111.418 104.618 107.505 106.677 103.263C104.042 101.393 102.206 99.2707 100.281 97.0075C99.9097 96.5695 99.1492 96.8764 98.8202 97.049C98.4417 97.2504 98.3002 97.8386 98.3214 98.414L98.7141 108.16C98.7494 109.043 99.8319 109.759 99.8142 110.884L99.7576 114.678H99.7682ZM71.5814 108.902C75.5788 108.742 79.5903 108.279 83.5806 109.014C84.5004 109.183 85.8517 110.622 86.9483 109.612C87.2243 106 86.9377 102.189 86.8316 98.4236C86.8139 97.7299 86.209 97.1353 85.4414 97.2152C78.8156 97.8897 72.2606 97.8705 65.5394 97.3559C64.9451 97.3111 63.2541 97.2248 63.1622 97.8641C62.582 101.777 62.8792 105.536 62.7766 109.497C71.8998 111.05 69.6712 108.985 71.5779 108.908L71.5814 108.902ZM116.387 106.115C115.238 108.18 116.532 110.446 118.743 111.635C120.65 112.661 122.769 112.872 124.52 111.472C126.271 110.072 127.753 108.116 128.089 105.782C129.122 103.388 128.288 101.032 125.511 100.022C123.544 99.3058 121.407 99.0405 119.621 100.396C117.834 101.751 116.656 103.819 116.387 106.115ZM51.2443 116.002C51.9023 116.465 53.2324 116.414 53.9965 116.42C53.671 114.8 53.0591 113.313 52.5815 111.699C51.8634 109.282 55.224 108.822 53.8656 105.683C53.5083 104.855 52.585 103.634 51.1453 103.701C51.2479 104.804 52.1428 105.693 51.6971 106.693C51.0816 108.068 48.577 108.506 47.5653 107.374C46.925 106.658 47.2222 105.737 46.497 105.044C45.5525 106.102 45.4782 107.278 45.9805 108.57C46.26 109.292 47.1019 110.05 48.2304 110.545C51.1983 111.843 49.4968 112.786 51.2479 116.005L51.2443 116.002ZM59.5787 115.883C59.4549 114.071 60.4631 113.262 61.0892 112.063C61.6587 110.97 61.0184 109.42 61.0361 108.24C61.0467 107.559 59.3523 107.141 59.1294 107.854C58.7509 109.068 57.7887 110.523 57.9656 111.747C58.1743 113.208 58.9596 114.445 58.1955 116.05C58.1071 116.238 58.1601 116.782 58.3547 116.855C58.5634 116.935 59.1436 116.989 59.278 116.842C59.4124 116.695 59.6034 116.235 59.5822 115.883H59.5787ZM56.8159 116.705C58.0929 111.734 56.1048 113.627 56.6532 110.807C56.7805 110.162 55.4681 110.184 55.0082 110.059C52.6346 109.404 55.1568 114.8 55.4929 116.318C55.5954 116.785 56.7027 117.124 56.8124 116.705H56.8159ZM91.9751 110.919L91.3596 110.903C91.204 110.929 91.0624 111.002 90.9775 111.124C89.2902 111.181 87.6381 111.379 85.7208 111.629L85.788 117.491C86.0215 117.811 86.8528 117.626 87.4047 117.571C90.7476 117.229 94.1578 116.871 97.529 115.816C98.2294 113.905 98.0136 111.99 97.8191 110.008L91.9751 110.919ZM82.721 119.601C84.8895 119.924 83.9627 112.016 83.8247 111.2C83.7186 110.561 82.7988 110.225 82.1444 110.229L72.5967 110.289C71.5036 110.296 70.7926 110.941 70.6864 111.92C70.46 114.004 70.6228 116.053 70.7926 118.188C70.8633 119.048 71.6133 119.544 72.533 119.595C75.8972 119.793 79.1941 119.758 82.721 119.601ZM62.6881 111.808C62.5926 113.508 60.1093 113.726 61.1387 116.715C62.3662 116.382 63.1799 116.014 64.0855 115.979C62.9322 120.602 47.254 117.434 47.5406 116.094C47.6927 115.375 49.2669 115.922 49.4013 115.66C49.4933 115.484 49.4862 114.733 49.1713 114.643C48.0075 114.32 46.971 115.471 46.8755 116.59C46.6173 119.62 46.8649 122.51 47.1479 125.512C47.2611 126.698 47.7033 127.503 48.2091 128.385C48.6478 129.153 49.2633 128.993 49.985 129.354C52.486 130.604 55.461 130.783 58.4502 131.051C60.6576 131.25 64.0395 131.106 64.1456 128.747L64.1597 128.401C64.9521 127.465 64.7364 126.151 64.8177 124.885C65.1113 120.352 65.1927 116.043 65.1679 111.574C64.2305 111.463 63.1834 111.213 62.6881 111.808ZM69.0415 117.517C69.1759 115.506 69.2254 113.793 69.0663 112.124C69.0203 111.632 67.2798 111.472 66.9721 111.773L66.728 117.622C67.347 117.859 68.999 118.166 69.0415 117.52V117.517ZM68.288 128.12L74.2133 128.232C78.0197 128.302 81.6527 128.187 85.2892 128.094C88.1192 128.021 91.0412 128.072 93.4255 126.148C96.0114 124.064 96.8675 120.992 96.5137 117.84C92.7569 118.872 89.2548 118.792 85.7314 119.576C84.7409 119.796 84.1749 121.155 82.8059 121.145C78.9324 121.119 74.843 121.637 71.019 120.714C69.6959 120.394 68.7691 118.549 66.8341 119.563C67.0039 122.238 66.6961 125.019 66.2716 127.836C66.2964 128.312 67.6831 128.21 68.2845 128.123L68.288 128.12ZM90.8608 137.055C90.5424 134.171 90.737 131.959 90.1356 129.53C87.1606 130.012 84.6348 129.968 81.7871 130.048L81.819 137.515C84.9709 137.617 87.8787 137.87 90.8643 137.055H90.8608ZM68.2951 137.387L68.2456 130.067C67.6123 129.98 66.1867 129.613 65.7764 130.166C64.418 132.033 62.4228 132.931 59.7131 132.669C59.2108 134.152 59.2002 135.651 59.3204 137.198C62.345 137.726 65.2917 137.783 68.2951 137.387ZM68.288 148.869L68.2456 138.57C65.0795 138.95 62.2849 138.698 59.1294 138.18L58.8783 145.027C62.6917 144.934 65.7552 146.318 68.2845 148.869H68.288ZM91.0978 145.011C91.1615 142.457 91.119 140.475 90.8997 138.202C87.7796 138.541 84.9496 139.03 81.7659 138.522V148.994C84.2174 146.328 87.2066 145.052 91.0978 145.011ZM64.1774 152.961C65.3731 153.143 66.6254 152.967 67.9873 152.581C67.4142 149.911 65.1785 148.134 62.2919 147.255C57.7215 145.868 52.6416 148.057 51.7113 152.817C55.8006 153.629 59.989 153.364 64.1774 152.961ZM86.6759 147.866C84.9461 147.687 82.2152 150.893 82.0454 152.712C84.1219 153.018 85.9826 153.261 88.1758 153.303C91.395 153.367 94.6707 153.594 98.0207 152.875C98.3674 151.606 97.5538 150.64 96.7508 149.665C94.4125 146.833 90.1109 145.919 86.6759 147.866Z" fill="#1A1313"/>
<path d="M22.5339 81.4336L20.0859 77.2556C19.573 76.3797 18.2747 76.1048 17.3054 76.3637C14.7372 77.0478 16.98 80.7239 17.0861 81.8811C16.987 81.8811 16.8703 81.8587 16.7677 81.8715C16.5378 81.9003 16.0496 81.8012 16.0248 82.0953C15.7418 82.0345 15.4801 81.8395 15.2997 81.5103L13.2055 77.668C12.3989 76.1847 6.35685 77.5337 3.1165 71.8597C1.28054 68.6471 1.63075 65.1628 3.51624 62.3466C5.12934 64.5491 5.3522 67.1831 7.47824 68.8997C8.6916 69.881 12.2822 69.9002 13.683 69.1778C15.236 68.3786 16.5378 66.2721 17.0543 64.9519C16.5696 62.3178 14.7337 60.3999 13.9306 57.8682C17.5637 58.1527 20.5493 60.2656 21.9396 62.775C25.6362 69.4431 20.1531 72.4351 20.7616 74.4234C21.89 78.1219 24.6599 79.8608 22.5303 81.4368L22.5339 81.4336Z" fill="#9CA4A8"/>
<path d="M24.8049 96.4672C25.8874 97.4965 26.648 101.857 29.4391 100.639C30.3057 100.262 30.9602 99.05 30.5074 98.0655L26.3862 89.1086C26.2199 88.7474 25.7565 88.677 25.6504 88.5076C25.3497 88.0217 25.0985 87.5007 24.9146 86.97L25.2754 86.8805C26.411 86.596 27.1998 87.2641 27.7092 88.2934L32.9023 98.8167C33.2277 99.4784 33.7407 100.07 34.5684 100.188C37.2216 100.562 39.383 102.103 40.3664 103.848C41.7283 106.262 41.6647 108.755 40.1329 110.964C38.9372 109.362 38.8488 107.3 37.1437 106.169C36.1462 105.507 33.7088 105.421 32.453 105.907C31.1972 106.393 29.5204 108.272 29.5063 109.503C29.485 111.376 31.1512 112.661 31.6323 114.509C29.0535 114.362 26.7789 112.674 25.7884 110.986C22.9513 106.147 26.938 103.986 26.036 102.186L24.0408 98.1965C23.8498 97.8129 23.8074 97.5252 23.9418 97.1225C24.0408 96.8252 24.5184 96.6973 24.8049 96.4704V96.4672Z" fill="#9CA4A8"/>
<path d="M20.238 84.6238C23.1812 86.7272 22.5656 86.8902 23.8391 90.0676C22.7178 93.667 18.5435 95.3197 14.6169 94.2744C13.4353 92.7176 12.4555 91.2088 12.459 89.4603C14.3763 86.0207 15.6074 84.838 20.238 84.6206V84.6238Z" fill="#E88782"/>
<path d="M14.6169 94.2744C18.5436 95.3197 22.7178 93.667 23.8392 90.0676C24.5184 91.7554 24.6634 93.8588 23.1742 95.3644C21.936 96.6207 19.7499 97.5637 17.7406 97.0234C16.0213 96.5631 15.3987 95.3069 14.6169 94.2744Z" fill="#B35956"/>
<path d="M28.0418 85.0682C26.5702 85.7554 25.2932 84.8316 24.6458 83.8215C23.9985 82.8114 24.2885 81.3121 25.7495 80.7272C27.0549 80.1997 28.3814 80.9573 28.8731 81.9163C29.3649 82.8753 29.3472 84.4576 28.0418 85.0682Z" fill="#E88782"/>
<path d="M24.8048 96.4671C24.9215 96.2178 25.3213 95.8694 25.4168 95.62C25.8484 96.5982 27.4473 100.357 28.8694 99.9386C31.0591 99.2961 28.5581 95.9397 27.6065 94.0441C27.228 93.2897 27.1006 92.417 26.3401 92.0686L25.6467 88.5076C25.7529 88.6802 26.2163 88.7505 26.3825 89.1085L30.5037 98.0654C30.9565 99.05 30.3021 100.261 29.4354 100.639C26.6443 101.857 25.8837 97.4964 24.8013 96.4671H24.8048Z" fill="#EEADA4"/>
<path d="M25.417 95.62C25.845 94.5108 26.5702 93.245 26.3438 92.0686C27.1044 92.417 27.2317 93.2929 27.6102 94.0441C28.5618 95.9397 31.0628 99.2961 28.8731 99.9387C27.4511 100.357 25.8521 96.5982 25.4205 95.62H25.417Z" fill="#587599"/>
<path d="M22.0066 83.0351L18.1614 81.8587C18.1614 81.082 15.6321 77.8054 17.3796 77.1214C17.8465 76.9392 18.9361 77.0479 19.258 77.6232C20.2768 79.4453 21.14 81.2514 22.0066 83.0319V83.0351Z" fill="#587599"/>
<path d="M22.5338 81.4336C22.5408 82.1528 22.601 82.8465 22.3675 83.7447C21.9253 83.6616 22.042 83.2908 22.0031 83.0351C21.14 81.2514 20.2733 79.4453 19.2545 77.6264C18.9326 77.051 17.843 76.9423 17.3761 77.1245C15.6285 77.8086 18.1579 81.0819 18.1579 81.8619L17.0825 81.8843C16.9763 80.7271 14.7336 77.0542 17.3018 76.3669C18.2746 76.108 19.5693 76.3829 20.0823 77.2588L22.5302 81.4368L22.5338 81.4336Z" fill="#EEADA4"/>
<path d="M20.2381 84.6238C15.6075 84.8412 14.3765 86.0207 12.4592 89.4635C11.9922 87.3537 12.8589 85.4837 14.6453 84.5503C16.6582 83.4986 18.5967 83.4539 20.2381 84.6238Z" fill="#D78F89"/>
<path d="M25.279 86.8805L24.9182 86.97C24.7484 87.0819 24.4937 86.9124 24.5503 86.7622C24.621 86.5672 24.8616 86.5416 25.0632 86.596C25.2118 86.6375 25.4134 86.6727 25.2825 86.8805H25.279Z" fill="#EEADA4"/>
<path d="M16.7678 81.8716C16.8385 82.0985 16.6829 82.1145 16.5272 82.1113C16.3221 82.1049 16.1664 82.1273 16.0249 82.0953C16.0497 81.8013 16.5378 81.9004 16.7678 81.8716Z" fill="#EEADA4"/>
<path d="M87.1568 78.9754C87.2099 80.0111 89.396 81.6669 89.7816 82.8944C92.0916 90.2562 91.9784 99.7693 92.1411 107.662C92.1588 108.429 91.9253 108.982 91.2992 109.266C90.1637 109.465 89.2651 109.624 88.165 109.516L87.928 98.2221C87.9032 96.9563 86.6722 96.1156 85.3208 96.2307C78.1786 96.838 71.2451 96.7613 64.11 96.2275C60.247 95.9366 62.182 104.267 61.7328 106.322C60.4628 106.6 59.0973 105.824 58.1811 106.594C57.4205 107.23 57.9229 108.844 56.522 108.665C55.1212 108.486 55.8039 106.84 55.574 105.741C55.719 99.0756 55.9171 92.5833 56.943 86.107C57.4878 82.6674 60.7175 80.4266 64.0852 79.7617C70.7675 82.5012 81.3765 82.5779 87.1603 78.9722L87.1568 78.9754Z" fill="#E88782"/>
<path d="M71.5813 108.902C69.6711 108.979 71.9032 111.047 62.78 109.49C62.8791 105.53 62.5855 101.77 63.1656 97.8578C63.2611 97.2185 64.9521 97.3048 65.5428 97.3495C72.2641 97.8642 78.8191 97.8834 85.4448 97.2089C86.2124 97.1321 86.8138 97.7235 86.835 98.4172C86.9412 102.183 87.2242 105.993 86.9518 109.605C85.8552 110.615 84.5074 109.177 83.5841 109.008C79.5938 108.272 75.5822 108.736 71.5849 108.896L71.5813 108.902Z" fill="#E88782"/>
<path d="M64.1596 128.398L64.0428 118.153C64.0357 117.523 62.3979 117.984 61.9097 118.198C61.3366 118.447 61.2305 119.275 60.8485 119.764C60.5584 120.135 60.0702 120.225 60.0808 121.037C60.1091 123.133 60.0419 125.17 59.9004 127.139L57.2827 128.571C54.771 129.945 51.1274 128.855 48.209 128.389C47.7066 127.506 47.2609 126.701 47.1477 125.515C46.8612 122.51 46.6171 119.624 46.8753 116.593C46.9708 115.474 48.0109 114.324 49.1712 114.646C49.486 114.733 49.4931 115.484 49.4011 115.663C49.2667 115.922 47.6925 115.379 47.5404 116.098C47.2574 117.44 62.9356 120.605 64.0853 115.983C64.3789 114.806 65.4083 113.534 64.623 112.278C64.3258 111.824 63.1443 111.923 62.6844 111.808C63.1797 111.213 64.2268 111.463 65.1642 111.575C65.189 116.043 65.1076 120.352 64.814 124.885C64.7326 126.151 64.9484 127.462 64.156 128.401L64.1596 128.398Z" fill="#EEADA4"/>
<path d="M91.2994 109.267C91.9255 108.985 92.1555 108.432 92.1413 107.662C91.9786 99.7662 92.0918 90.2531 89.7818 82.8945C89.3962 81.6638 87.21 80.0111 87.157 78.9754C91.1331 78.9243 95.0845 82.2615 95.5126 85.7299C96.4465 93.309 96.5526 100.626 96.6976 108.231C94.7308 108.972 93.0434 108.966 91.2994 109.27V109.267Z" fill="#B35956"/>
<path d="M85.2925 128.091C85.2536 127.465 85.8797 127.247 86.3998 126.835C88.3808 125.266 90.0328 123.348 91.0445 120.944C88.4727 120.49 86.2689 121.554 83.9376 122.36C81.3128 123.268 72.2427 123.348 69.0625 122.286C69.0377 124.441 68.8962 126.295 68.2877 128.12C67.6864 128.21 66.2997 128.309 66.2749 127.832C66.6994 125.016 67.0072 122.235 66.8374 119.56C68.7724 118.546 69.6992 120.391 71.0222 120.71C74.8463 121.634 78.9356 121.116 82.8092 121.142C84.1782 121.152 84.7442 119.793 85.7347 119.572C89.2581 118.789 92.7602 118.869 96.517 117.837C96.8708 120.989 96.0147 124.06 93.4288 126.145C91.0445 128.069 88.119 128.018 85.2925 128.091Z" fill="#B35956"/>
<path d="M85.2927 128.091C81.6562 128.184 78.0232 128.299 74.2168 128.229L68.2915 128.117C68.8964 126.292 69.0415 124.438 69.0662 122.283C72.2464 123.344 81.313 123.264 83.9414 122.357C86.2762 121.551 88.48 120.487 91.0483 120.94C90.033 123.344 88.3845 125.262 86.4035 126.832C85.8835 127.244 85.2574 127.462 85.2963 128.088L85.2927 128.091Z" fill="#E88782"/>
<path d="M98.4239 95.2558C97.4334 90.2883 98.7848 84.9691 94.989 80.6441C99.6196 79.5349 103.734 82.4694 104.385 86.6729C104.954 90.3331 102.549 93.8749 98.4239 95.2558Z" fill="#B35956"/>
<path d="M83.3895 78.8924C77.9983 80.3181 72.1968 80.4267 66.8446 78.838C66.0522 78.6015 65.4084 78.2339 65.0864 77.879C64.7221 77.4763 64.5098 75.7789 65.136 75.7725L81.4049 75.6062C82.4768 75.5967 83.5345 75.2067 84.6842 75.44C85.4342 75.5935 85.2042 76.8306 85.1158 77.4539C85.0344 78.0037 84.3481 78.643 83.3895 78.8956V78.8924Z" fill="#B35956"/>
<path d="M64.0818 79.7651C60.7141 80.43 57.4844 82.6708 56.9396 86.1104C55.9137 92.5899 55.7192 99.079 55.5706 105.744C54.8808 104.708 54.4881 103.596 53.0908 102.8C53.3314 96.9661 53.5259 91.2825 54.4634 85.503C55.0011 82.1849 58.0186 80.0368 61.3969 79.0523C62.5253 78.723 63.668 78.8285 64.0818 79.7651Z" fill="#D78F89"/>
<path d="M82.7208 119.601C79.1939 119.758 75.9004 119.793 72.5327 119.595C71.613 119.541 70.8595 119.048 70.7923 118.188C70.619 116.053 70.4598 114.004 70.6862 111.92C70.7923 110.938 71.5069 110.296 72.5964 110.29L82.1441 110.229C82.7986 110.226 83.7183 110.561 83.8245 111.201C83.9624 112.019 84.8892 119.924 82.7208 119.601ZM80.8282 118.044C82.7526 117.936 82.2963 114.691 82.1618 113.093C82.0982 112.358 81.5534 111.859 80.7291 111.843C78.4651 111.802 76.3037 111.833 74.0645 111.901C73.1341 111.929 72.5257 112.55 72.5044 113.365C72.4549 115.315 72.041 117.987 74.0645 118.105C76.2896 118.233 78.4404 118.179 80.8247 118.041L80.8282 118.044Z" fill="#9CA4A8"/>
<path d="M53.9292 81.8078C51.5449 86.5132 52.4364 90.1157 51.4176 95.3134C47.4697 93.9261 44.8378 90.3938 45.4569 86.8168C45.9875 86.5707 46.2669 86.088 46.6667 85.5734C48.3859 83.3517 51.0284 81.6863 53.9292 81.8078Z" fill="#B35956"/>
<path d="M64.1596 128.398L64.1454 128.743L61.5737 130.594C56.7025 130.981 56.9749 130.092 53.1863 130.016C52.1462 129.376 51.0602 129.239 49.9848 129.354C49.2632 128.993 48.6441 129.153 48.209 128.385C51.1274 128.852 54.771 129.942 57.2827 128.568L59.9004 127.136C59.8615 127.669 60.0702 128.302 60.3603 128.996C61.3119 128.475 61.2164 127.455 61.135 126.493C60.9122 123.862 61.365 121.462 60.8485 119.761C61.2305 119.272 61.3367 118.444 61.9097 118.195C62.3979 117.98 64.0358 117.52 64.0428 118.15L64.1596 128.395V128.398Z" fill="#B35956"/>
<path d="M51.244 116.002C49.493 112.783 51.1945 111.84 48.2265 110.542C47.0945 110.046 46.2562 109.289 45.9767 108.566C45.4744 107.278 45.5487 106.102 46.4932 105.041C47.2184 105.734 46.9247 106.658 47.5615 107.371C48.5732 108.502 51.0778 108.068 51.6933 106.69C52.139 105.689 51.244 104.801 51.1415 103.698C52.5812 103.634 53.5045 104.855 53.8618 105.68C55.2202 108.816 51.8596 109.276 52.5777 111.696C53.0552 113.307 53.6672 114.797 53.9927 116.417C53.2286 116.411 51.8985 116.462 51.2405 115.999L51.244 116.002Z" fill="#9CA4A8"/>
<path d="M37.8336 97.1994C37.8442 95.0704 37.9043 93.0853 36.783 90.9532C39.0682 90.3618 41.0386 89.6905 43.1575 88.511C43.8226 90.4481 44.3957 92.2158 45.9699 93.9868C43.6811 95.7161 41.3003 96.7742 37.8301 97.1994H37.8336Z" fill="#B35956"/>
<path d="M87.4045 117.571C87.7618 117.111 88.5189 117.264 89.0813 116.807C89.4209 113.093 91.9856 116.977 91.9785 110.919L97.8225 110.008C98.0135 111.99 98.2328 113.905 97.5324 115.816C94.1612 116.871 90.751 117.229 87.4081 117.571H87.4045Z" fill="#B35956"/>
<path d="M105.446 99.7439C104.091 98.542 102.92 97.2857 101.742 95.8121C103.624 94.1179 105.301 92.6794 106.146 90.2883C107.519 92.1328 108.884 93.2867 110.441 94.8115C108.17 95.9239 106.825 97.4455 105.446 99.7407V99.7439Z" fill="#B35956"/>
<path d="M91.9749 110.919C91.9855 116.977 89.4173 113.093 89.0777 116.807C88.5152 117.261 87.7582 117.111 87.4009 117.571C86.8526 117.629 86.0177 117.811 85.7843 117.492L85.717 111.629C87.6344 111.38 89.2864 111.185 90.9738 111.124L91.3558 110.903L91.9713 110.919H91.9749Z" fill="#EEADA4"/>
<path d="M36.613 97.1193C36.3796 97.602 34.724 97.5061 34.2712 97.1673L30.8328 90.3105C32.4105 91.0681 34.4375 90.5855 35.6721 91.2599C37.3064 92.4842 36.9526 95.3964 36.6095 97.1193H36.613Z" fill="#B35956"/>
<path d="M59.5785 115.884C59.6033 116.232 59.4087 116.696 59.2743 116.843C59.1399 116.99 58.5597 116.935 58.351 116.855C58.1565 116.782 58.1034 116.238 58.1918 116.05C58.9559 114.448 58.1706 113.208 57.9619 111.747C57.7886 110.526 58.7472 109.068 59.1257 107.854C59.3486 107.141 61.0431 107.56 61.0325 108.241C61.0112 109.42 61.6551 110.97 61.0855 112.064C60.4629 113.262 59.4512 114.071 59.575 115.884H59.5785Z" fill="#9CA4A8"/>
<path d="M53.9291 81.8078C51.0284 81.6863 48.3858 83.3517 46.6666 85.5734C46.2669 86.0912 45.9874 86.5739 45.4568 86.8169C45.8707 82.527 50.3279 79.6628 54.8772 80.4876C54.8913 81.2068 54.1767 81.4466 53.9326 81.8078H53.9291Z" fill="#EEADA4"/>
<path d="M56.8156 116.705C56.7095 117.124 55.5987 116.785 55.4961 116.318C55.1601 114.8 52.6378 109.407 55.0115 110.059C55.4714 110.184 56.7802 110.162 56.6564 110.807C56.1081 113.624 58.0927 111.734 56.8192 116.705H56.8156Z" fill="#EEADA4"/>
<path d="M69.0413 117.517C68.9989 118.163 67.3468 117.856 66.7278 117.619L66.9719 111.77C67.2796 111.469 69.0201 111.629 69.0661 112.121C69.2253 113.793 69.1757 115.503 69.0413 117.514V117.517Z" fill="#EEADA4"/>
<path d="M64.0853 115.979C63.1797 116.015 62.3661 116.382 61.1386 116.715C60.1092 113.726 62.5925 113.505 62.688 111.808C63.1444 111.92 64.3294 111.821 64.6266 112.278C65.4119 113.534 64.3825 114.806 64.0889 115.983L64.0853 115.979Z" fill="#B35956"/>
<path d="M107.558 101.483C106.946 101.333 106.086 100.732 106.359 100.124C107.105 98.4556 108.255 97.0459 109.999 96.1157C109.493 98.1104 108.46 99.5457 107.558 101.483Z" fill="#B35956"/>
<path d="M100.217 115.318C99.6689 116.264 99.5062 117.434 98.5298 118.227C98.123 117.594 98.6324 117.201 98.9543 116.772C99.4708 116.079 99.2055 115.215 99.7715 114.678C99.768 114.953 99.8918 115.276 100.221 115.318H100.217Z" fill="#9CA4A8"/>
<path d="M90.9773 111.127C91.0622 111.006 91.2037 110.929 91.3594 110.906L90.9773 111.127Z" fill="#B35956"/>
<path d="M60.8451 119.764C61.3615 121.465 60.9087 123.865 61.1316 126.496C61.213 127.458 61.3085 128.475 60.3569 128.999C60.0668 128.309 59.8581 127.676 59.897 127.139C60.0385 125.17 60.1057 123.13 60.0774 121.036C60.0668 120.224 60.555 120.135 60.8451 119.764Z" fill="#1A1313"/>
<path d="M80.8283 118.044C78.4405 118.179 76.2897 118.236 74.0682 118.108C72.0447 117.99 72.4586 115.318 72.5081 113.368C72.5293 112.553 73.1378 111.929 74.0682 111.904C76.3074 111.837 78.4724 111.801 80.7328 111.846C81.5571 111.862 82.1018 112.361 82.1655 113.096C82.2999 114.691 82.7563 117.936 80.8319 118.048L80.8283 118.044ZM81.0653 116.951C81.1007 115.254 81.1609 114.205 80.8849 112.933C78.5148 112.76 76.318 112.84 73.8453 112.936C73.4385 114.314 73.4562 115.698 73.916 117.009L81.0618 116.948L81.0653 116.951Z" fill="#1A1313"/>
<path d="M81.0654 116.951L73.9196 117.012C73.4562 115.698 73.4421 114.317 73.8489 112.94C76.3216 112.844 78.5184 112.764 80.8885 112.936C81.1644 114.209 81.1043 115.254 81.0689 116.955L81.0654 116.951Z" fill="#EEADA4"/>
</g>
<defs>
<clipPath id="clip0_58_1309">
<rect width="143" height="126" fill="white"/>
</clipPath>
</defs>
</svg>
